<svg width="45" height="59" viewBox="0 0 45 59" fill="none" xmlns="http://www.w3.org/2000/svg">
<path d="M22.0125 7.23057C21.6028 7.54944 21.2259 7.79896 20.8819 7.97913C20.5469 8.15653 20.2124 8.24745 19.8783 8.2519C19.5473 8.25046 19.1814 8.14385 18.7805 7.93209C18.6155 7.8449 18.4655 7.75058 18.3306 7.64915C18.2016 7.55083 18.089 7.4499 17.9929 7.34636L18.4087 6.55942C18.4985 6.67476 18.6019 6.78592 18.7188 6.89292C18.8388 6.99401 18.9725 7.08349 19.1199 7.16134C19.338 7.27656 19.5392 7.34519 19.7236 7.36721C19.917 7.38645 20.1101 7.35647 20.3027 7.27729C20.5012 7.20121 20.7158 7.07331 20.9465 6.89358L20.9954 0.913928L21.8707 1.37638L21.7945 5.78083C21.7963 5.83455 21.7934 5.89711 21.7858 5.96851C21.7813 6.03402 21.7753 6.10247 21.7678 6.17388C21.7661 6.24839 21.7601 6.31685 21.7498 6.37924L21.7851 6.39793C21.8246 6.36601 21.8672 6.32819 21.9129 6.28448C21.9676 6.23799 22.0179 6.19289 22.0636 6.14919C22.1183 6.1027 22.1654 6.06349 22.2049 6.03157L25.5755 3.33361L26.4155 3.77737L22.0125 7.23057ZM30.648 10.1793L26.8141 13.925L26.1991 13.2956L29.4965 10.0739L27.5607 8.09262L24.2633 11.3143L23.6483 10.6848L27.4822 6.93904L30.648 10.1793ZM33.7973 15.1524C34.0895 15.7442 34.1179 16.3213 33.8826 16.8836C33.6501 17.4519 33.1185 17.9411 32.2876 18.3514C31.7436 18.62 31.242 18.7635 30.7827 18.7821C30.3324 18.8037 29.9378 18.7123 29.599 18.5078C29.2691 18.3064 29.0052 18.0055 28.8075 17.6049C28.6865 17.3599 28.6116 17.1254 28.5829 16.9017C28.5542 16.6779 28.5567 16.4722 28.5905 16.2846C28.6332 16.0999 28.6936 15.9288 28.7719 15.7712L28.7454 15.7174C28.6497 15.7795 28.527 15.8549 28.3775 15.9436C28.228 16.0323 28.0965 16.1047 27.9829 16.1608L26.0102 17.1347L25.6206 16.3457L32.5787 12.9102L32.8975 13.5558L32.2961 13.9866L32.3138 14.0224C32.4985 14.0502 32.6801 14.1018 32.8586 14.1772C33.0401 14.2586 33.2094 14.3758 33.3667 14.5286C33.5269 14.6874 33.6704 14.8954 33.7973 15.1524ZM33.063 15.3365C32.9036 15.0137 32.7124 14.7847 32.4895 14.6494C32.2725 14.5112 32.0194 14.4577 31.73 14.4891C31.4407 14.5204 31.1062 14.6261 30.7267 14.806L30.5742 14.8813C30.1797 15.0761 29.8656 15.2832 29.632 15.5027C29.3983 15.7221 29.2584 15.9659 29.2124 16.234C29.1693 16.5081 29.2333 16.8185 29.4045 17.1652C29.5491 17.4581 29.7479 17.6574 30.0007 17.763C30.2566 17.8746 30.5441 17.9073 30.8634 17.8612C31.1916 17.8182 31.535 17.7081 31.8936 17.531C32.4436 17.2595 32.8298 16.9349 33.0524 16.5574C33.2778 16.1858 33.2814 15.7789 33.063 15.3365ZM35.9636 21.9435C36.0728 22.5877 36.0123 23.0882 35.782 23.445C35.5518 23.8018 35.1277 24.0326 34.5098 24.1374L30.9112 24.7474L30.8042 24.1164L31.5251 23.8218L31.5184 23.7824C31.3022 23.6635 31.1144 23.5331 30.9551 23.391C30.8035 23.2544 30.6802 23.086 30.5854 22.8857C30.4917 22.692 30.4198 22.4472 30.3697 22.1514C30.3162 21.8359 30.3236 21.5405 30.3919 21.2653C30.4613 20.9965 30.5987 20.7704 30.8043 20.5868C31.0164 20.4021 31.2999 20.2796 31.6548 20.2194C32.1807 20.1303 32.62 20.2688 32.9728 20.635C33.3322 21.0001 33.5981 21.6109 33.7703 22.4675L33.952 23.3597L34.2675 23.3062C34.7079 23.2315 34.9974 23.0844 35.136 22.8648C35.2745 22.6452 35.3143 22.3613 35.2552 22.0129C35.2084 21.7368 35.1211 21.4812 34.9934 21.2459C34.8721 21.0095 34.7406 20.7917 34.5986 20.5927L35.2042 20.2162C35.3681 20.425 35.5195 20.68 35.6584 20.981C35.8039 21.2809 35.9057 21.6017 35.9636 21.9435ZM33.1873 22.6779C33.0496 22.0251 32.867 21.5861 32.6395 21.3609C32.4131 21.1424 32.1323 21.0615 31.7971 21.1183C31.5013 21.1685 31.2994 21.294 31.1915 21.4948C31.0847 21.7023 31.0552 21.9473 31.1031 22.2299C31.1789 22.6769 31.3634 23.0277 31.6568 23.2822C31.9567 23.5356 32.363 23.6189 32.8757 23.532L33.3489 23.4518L33.1873 22.6779ZM34.4182 31.1159C34.0872 31.0767 33.8407 30.9468 33.6788 30.7263C33.517 30.5057 33.4213 30.236 33.3919 29.917L33.3522 29.9123C33.2667 30.2378 33.1135 30.5117 32.8925 30.734C32.6781 30.957 32.3723 31.045 31.9751 30.998C31.75 30.9714 31.5466 30.9037 31.3647 30.7949C31.1822 30.6927 31.0315 30.5473 30.9129 30.3588C30.7942 30.1702 30.7112 29.9355 30.6639 29.6546C30.6232 29.3746 30.6255 29.0425 30.6709 28.6586L30.9424 26.3646L36.2652 26.9943L35.995 29.2784C35.9503 29.6558 35.8674 29.9883 35.746 30.2761C35.6306 30.5712 35.4633 30.7931 35.2444 30.9417C35.0312 31.0978 34.7558 31.1558 34.4182 31.1159ZM32.082 30.0943C32.3866 30.1303 32.6188 30.0403 32.7786 29.8243C32.9384 29.6082 33.0449 29.2751 33.0982 28.8249L33.2521 27.524L31.544 27.3219L31.3878 28.6427C31.3361 29.0796 31.3594 29.4214 31.4578 29.668C31.5628 29.9154 31.7709 30.0575 32.082 30.0943ZM34.4135 30.2191C34.6651 30.2489 34.8581 30.1777 34.9926 30.0057C35.1329 29.841 35.2274 29.5535 35.2759 29.143L35.4369 27.7825L33.9771 27.6098L33.8349 28.8114C33.784 29.2417 33.8048 29.5765 33.8973 29.8157C33.9899 30.0549 34.1619 30.1893 34.4135 30.2191ZM28.4214 35.7481L28.7729 34.9304L33.0267 36.7586L33.6505 35.3069C32.899 34.9114 32.2673 34.5492 31.7556 34.2204C31.2499 33.8943 30.8559 33.5871 30.5734 33.2988C30.291 33.0105 30.1122 32.7341 30.0372 32.4697C29.9622 32.2052 29.9813 31.9413 30.0945 31.678C30.1287 31.5983 30.169 31.5213 30.2155 31.447C30.2532 31.3761 30.2948 31.3215 30.3404 31.283L30.9468 31.5436C30.9187 31.5751 30.8924 31.6109 30.8679 31.6512C30.8433 31.6914 30.8218 31.733 30.8034 31.7758C30.7455 31.9106 30.748 32.0568 30.8109 32.2144C30.8737 32.3721 31 32.5424 31.1898 32.7256C31.377 32.9149 31.6262 33.1199 31.9376 33.3409C32.2552 33.5644 32.6379 33.8051 33.0858 34.0629C33.5338 34.3207 34.0456 34.5987 34.6213 34.8969L33.3459 37.8645L28.4214 35.7481ZM30.4418 42.2381C30.1487 42.5926 29.821 42.832 29.4587 42.9563C29.0921 43.0858 28.7124 43.1005 28.3193 43.0004C27.9272 42.9097 27.5436 42.7093 27.1685 42.3992L26.7601 42.0615L29.0987 39.2331C28.6227 38.8568 28.1679 38.6797 27.7343 38.7019C27.3017 38.7334 26.9154 38.9547 26.5756 39.3657C26.3589 39.6277 26.1909 39.878 26.0714 40.1166C25.9529 40.3646 25.8506 40.6348 25.7647 40.927L25.1713 40.4364C25.253 40.1492 25.3582 39.8859 25.4871 39.6464C25.6107 39.4027 25.7894 39.1395 26.0231 38.8569C26.3459 38.4665 26.7123 38.1855 27.1222 38.0141C27.5279 37.8478 27.9575 37.8094 28.4111 37.899C28.8656 37.998 29.3215 38.2365 29.7788 38.6146C30.2309 38.9885 30.5572 39.3837 30.7577 39.8003C30.9539 40.2221 31.0268 40.6414 30.9763 41.0581C30.9216 41.48 30.7434 41.8733 30.4418 42.2381ZM29.8933 41.7716C30.1609 41.4479 30.268 41.1039 30.2146 40.7397C30.162 40.3848 29.9656 40.0364 29.6254 39.6946L27.8858 41.7985C28.1221 41.9939 28.3574 42.1279 28.5915 42.2004C28.8257 42.2729 29.0532 42.275 29.274 42.2067C29.4957 42.1478 29.7021 42.0028 29.8933 41.7716ZM26.0015 46.2723L24.78 44.4066L22.3454 46.0006L23.5669 47.8663L22.8307 48.3483L19.8947 43.864L20.6309 43.3819L21.9401 45.3815L24.3747 43.7875L23.0655 41.7879L23.8017 41.3059L26.7377 45.7903L26.0015 46.2723ZM18.1267 46.7639C18.1113 46.706 18.0922 46.6214 18.0694 46.5102C18.0419 46.4071 18.015 46.2935 17.9888 46.1694C17.9643 46.0517 17.9407 45.9373 17.9179 45.8261C17.8968 45.7213 17.8809 45.6358 17.8702 45.5697L16.2547 50.6478L15.2112 50.9262L13.8294 45.7474L14.6217 45.536L15.4364 48.5892C15.4639 48.6923 15.5 48.8275 15.5446 48.995C15.5829 49.1642 15.6203 49.3302 15.6568 49.4929C15.695 49.6621 15.7221 49.7895 15.738 49.8749L17.3367 44.8116L18.3899 44.5306L19.7717 49.7094L18.9698 49.9234L18.1267 46.7639ZM9.89072 51.2967C9.43111 51.2779 9.04218 51.1619 8.72395 50.9487C8.39906 50.7353 8.15751 50.4419 7.99929 50.0684C7.83413 49.7014 7.76149 49.2747 7.78136 48.7885L7.80299 48.2589L11.4699 48.4087C11.4814 47.802 11.3471 47.3328 11.0671 47.0011C10.7801 46.6758 10.3702 46.5022 9.83729 46.4805C9.49757 46.4666 9.19659 46.4843 8.93436 46.5337C8.6652 46.5894 8.38828 46.6715 8.10362 46.7799L8.13505 46.0106C8.41305 45.9018 8.68637 45.8263 8.95499 45.7839C9.22388 45.7348 9.54151 45.7178 9.90787 45.7327C10.4141 45.7534 10.8595 45.875 11.2441 46.0976C11.622 46.3199 11.9126 46.6387 12.1158 47.054C12.3121 47.4757 12.3981 47.9829 12.3739 48.5758C12.3499 49.1619 12.2328 49.6609 12.0225 50.0727C11.8055 50.4842 11.5159 50.7959 11.1536 51.008C10.7846 51.2198 10.3637 51.316 9.89072 51.2967ZM9.93011 50.5777C10.3498 50.5948 10.6884 50.4719 10.946 50.2088C11.1967 49.9522 11.3552 49.585 11.4214 49.1073L8.69365 48.9959C8.68113 49.3023 8.71687 49.5706 8.80087 49.8009C8.88488 50.0312 9.02088 50.2136 9.20888 50.348C9.38995 50.4889 9.63036 50.5654 9.93011 50.5777Z" fill="white"/>
</svg>
