<svg width="364" height="372" viewBox="0 0 364 372" fill="none" xmlns="http://www.w3.org/2000/svg">
<path d="M44.6573 85.1115C45.7492 83.9633 47.6792 84.4805 48.0508 86.0208L52.0606 102.644C52.4164 104.119 51.0644 105.437 49.5987 105.044L33.8049 100.812C32.3392 100.42 31.8276 98.6019 32.8733 97.5024L44.6573 85.1115Z" fill="#FF9500"/>
<path d="M100.248 260.978C99.1002 259.886 99.6174 257.956 101.158 257.584L112.692 254.802C114.167 254.446 115.486 255.798 115.093 257.264L112.157 268.223C111.764 269.689 109.946 270.2 108.847 269.155L100.248 260.978Z" fill="#FF9500"/>
<path d="M321.909 149.727C321.799 148.943 322.602 148.348 323.321 148.682L334.126 153.703C334.814 154.022 334.909 154.961 334.3 155.413L325.143 162.192C324.533 162.644 323.663 162.279 323.558 161.527L321.909 149.727Z" stroke="#C7C7CC" stroke-width="2"/>
<path d="M329.761 92.8331C330.239 92.2008 331.227 92.3482 331.499 93.0923L335.589 104.283C335.85 104.996 335.253 105.727 334.503 105.615L323.234 103.934C322.484 103.822 322.127 102.949 322.584 102.343L329.761 92.8331Z" stroke="#C7C7CC" stroke-width="2"/>
<path d="M30.9088 236.727C30.7992 235.943 31.6023 235.348 32.3208 235.682L43.1259 240.703C43.8139 241.022 43.9091 241.961 43.2995 242.413L34.1427 249.192C33.533 249.644 32.6629 249.279 32.5579 248.527L30.9088 236.727Z" stroke="#C7C7CC" stroke-width="2"/>
<circle cx="327.5" cy="211.5" r="5.5" fill="#FFE2E0"/>
<circle cx="60.9325" cy="37.2289" r="5.5" transform="rotate(45 60.9325 37.2289)" fill="#FFE2E0"/>
<circle cx="292.5" cy="308.5" r="5.5" fill="#FFE2E0"/>
<circle cx="37.5" cy="179.5" r="5.5" fill="#FFE2E0"/>
<circle cx="173" cy="207" r="5" stroke="#FF9500" stroke-width="2"/>
<circle cx="229" cy="66" r="5" stroke="#C7C7CC" stroke-width="2"/>
<circle cx="244" cy="342" r="5" stroke="#C7C7CC" stroke-width="2"/>
<circle cx="320.5" cy="275.5" r="7.5" stroke="#FF9500" stroke-width="2"/>
<circle cx="259" cy="108" r="5" fill="#FF9500"/>
<circle cx="312.663" cy="20.9651" r="8" transform="rotate(45 312.663 20.9651)" fill="#FF9500"/>
<path fill-rule="evenodd" clip-rule="evenodd" d="M44 319.122L49.303 324.425C49.5844 324.707 49.966 324.865 50.364 324.865C50.7619 324.865 51.1436 324.707 51.425 324.425C51.7064 324.144 51.8645 323.762 51.8645 323.364C51.8645 322.966 51.7064 322.585 51.425 322.303L46.12 317L51.424 311.697C51.5632 311.558 51.6737 311.392 51.749 311.21C51.8244 311.028 51.8631 310.833 51.8631 310.636C51.8631 310.439 51.8242 310.244 51.7488 310.062C51.6733 309.88 51.5628 309.715 51.4235 309.576C51.2841 309.436 51.1187 309.326 50.9367 309.251C50.7547 309.175 50.5596 309.136 50.3626 309.136C50.1656 309.137 49.9706 309.175 49.7886 309.251C49.6066 309.326 49.4412 309.437 49.302 309.576L44 314.879L38.697 309.576C38.5587 309.433 38.3932 309.318 38.2102 309.24C38.0273 309.161 37.8305 309.12 37.6313 309.118C37.4321 309.116 37.2346 309.154 37.0502 309.229C36.8658 309.304 36.6983 309.416 36.5574 309.557C36.4165 309.697 36.305 309.865 36.2295 310.049C36.154 310.233 36.116 310.431 36.1176 310.63C36.1192 310.829 36.1605 311.026 36.2391 311.209C36.3176 311.392 36.4318 311.558 36.575 311.696L41.88 317L36.576 322.304C36.4328 322.443 36.3186 322.608 36.2401 322.791C36.1615 322.974 36.1202 323.171 36.1186 323.37C36.117 323.569 36.155 323.767 36.2305 323.951C36.306 324.136 36.4175 324.303 36.5584 324.444C36.6993 324.584 36.8668 324.696 37.0512 324.771C37.2356 324.846 37.4331 324.884 37.6323 324.882C37.8315 324.881 38.0283 324.839 38.2112 324.76C38.3942 324.682 38.5597 324.567 38.698 324.424L44 319.122Z" fill="#FF9500"/>
<path fill-rule="evenodd" clip-rule="evenodd" d="M12.9057 15.0895L8.96512 21.4704C8.75602 21.809 8.68999 22.2168 8.78156 22.6041C8.87312 22.9914 9.11478 23.3264 9.45337 23.5355C9.79196 23.7446 10.1997 23.8106 10.587 23.7191C10.9743 23.6275 11.3093 23.3858 11.5184 23.0472L15.4585 16.6644L21.8396 20.6059C22.0073 20.7094 22.1937 20.7788 22.3881 20.8103C22.5826 20.8417 22.7814 20.8346 22.9731 20.7892C23.1648 20.7438 23.3457 20.6611 23.5054 20.5458C23.6652 20.4306 23.8006 20.285 23.9041 20.1173C24.0076 19.9497 24.077 19.7633 24.1085 19.5688C24.1399 19.3743 24.1327 19.1756 24.0874 18.9839C24.042 18.7922 23.9593 18.6113 23.844 18.4515C23.7287 18.2918 23.5831 18.1563 23.4155 18.0528L17.0348 14.1133L20.9754 7.73239C21.083 7.56482 21.1562 7.37748 21.1907 7.18132C21.2252 6.98515 21.2203 6.78408 21.1762 6.58984C21.1322 6.39559 21.0499 6.21207 20.9342 6.04997C20.8184 5.88787 20.6716 5.75044 20.5021 5.64571C20.3327 5.54098 20.1441 5.47103 19.9474 5.43996C19.7507 5.40888 19.5497 5.4173 19.3563 5.46472C19.1628 5.51214 18.9808 5.59761 18.8207 5.71614C18.6606 5.83468 18.5258 5.98391 18.424 6.15512L14.4829 12.5382L8.10085 8.59689C7.93318 8.48939 7.74577 8.41635 7.54957 8.38205C7.35337 8.34775 7.15231 8.35286 6.95811 8.3971C6.7639 8.44133 6.58046 8.5238 6.41847 8.63969C6.25648 8.75558 6.11919 8.90257 6.01462 9.07208C5.91004 9.2416 5.84028 9.43024 5.80939 9.62701C5.7785 9.82378 5.7871 10.0247 5.83471 10.2181C5.88231 10.4115 5.96795 10.5935 6.08664 10.7535C6.20532 10.9134 6.35468 11.0481 6.52598 11.1497L12.9057 15.0895Z" fill="#FF9500"/>
<path fill-rule="evenodd" clip-rule="evenodd" d="M364.24 260.92L368.438 265.118C368.661 265.341 368.963 265.466 369.278 265.466C369.593 265.466 369.896 265.341 370.118 265.118C370.341 264.896 370.466 264.593 370.466 264.278C370.466 263.963 370.341 263.661 370.118 263.438L365.919 259.24L370.118 255.042C370.228 254.932 370.315 254.801 370.375 254.657C370.435 254.513 370.465 254.358 370.465 254.202C370.465 254.046 370.434 253.892 370.375 253.748C370.315 253.604 370.227 253.473 370.117 253.363C370.007 253.252 369.876 253.165 369.732 253.105C369.588 253.046 369.433 253.015 369.277 253.015C369.121 253.015 368.967 253.046 368.823 253.105C368.679 253.165 368.548 253.253 368.438 253.363L364.24 257.561L360.042 253.363C359.933 253.249 359.802 253.159 359.657 253.097C359.512 253.034 359.356 253.001 359.198 253C359.041 252.999 358.884 253.029 358.738 253.088C358.592 253.148 358.46 253.236 358.348 253.347C358.237 253.459 358.148 253.591 358.089 253.737C358.029 253.883 357.999 254.04 358 254.197C358.001 254.355 358.034 254.511 358.096 254.656C358.158 254.801 358.249 254.932 358.362 255.041L362.562 259.24L358.363 263.439C358.25 263.549 358.159 263.68 358.097 263.825C358.035 263.97 358.002 264.126 358.001 264.283C358 264.441 358.03 264.597 358.089 264.743C358.149 264.889 358.237 265.022 358.349 265.133C358.461 265.245 358.593 265.333 358.739 265.392C358.885 265.452 359.041 265.482 359.199 265.48C359.357 265.479 359.513 265.446 359.657 265.384C359.802 265.322 359.933 265.231 360.043 265.118L364.24 260.92Z" fill="#767680" fill-opacity="0.12"/>
<path fill-rule="evenodd" clip-rule="evenodd" d="M140.71 87.1527L140.701 87.1543L140.645 87.182L140.629 87.1851L140.618 87.182L140.562 87.1543C140.553 87.1516 140.547 87.1529 140.543 87.1582L140.539 87.1661L140.526 87.505L140.53 87.5208L140.538 87.5311L140.62 87.5897L140.632 87.5928L140.642 87.5897L140.724 87.5311L140.733 87.5184L140.737 87.505L140.723 87.1669C140.721 87.1585 140.717 87.1537 140.71 87.1527ZM140.919 87.0632L140.909 87.0648L140.763 87.1384L140.755 87.1463L140.752 87.155L140.767 87.4955L140.771 87.505L140.777 87.5105L140.936 87.5841C140.946 87.5868 140.954 87.5847 140.959 87.5778L140.962 87.5667L140.935 87.0806C140.933 87.0711 140.927 87.0653 140.919 87.0632ZM140.353 87.0648C140.35 87.0627 140.346 87.062 140.342 87.0629C140.338 87.0638 140.334 87.0661 140.332 87.0695L140.327 87.0806L140.3 87.5667C140.301 87.5762 140.305 87.5825 140.314 87.5857L140.326 87.5841L140.485 87.5105L140.493 87.5042L140.496 87.4955L140.509 87.155L140.507 87.1455L140.499 87.1376L140.353 87.0648Z" fill="#767680" fill-opacity="0.12"/>
<path fill-rule="evenodd" clip-rule="evenodd" d="M140.24 79.9202L144.438 84.1184C144.661 84.3412 144.963 84.4663 145.278 84.4663C145.593 84.4663 145.896 84.3412 146.118 84.1184C146.341 83.8956 146.466 83.5935 146.466 83.2784C146.466 82.9634 146.341 82.6612 146.118 82.4385L141.919 78.2403L146.118 74.0421C146.228 73.9317 146.315 73.8008 146.375 73.6567C146.435 73.5126 146.465 73.3582 146.465 73.2022C146.465 73.0463 146.434 72.8918 146.375 72.7478C146.315 72.6037 146.227 72.4728 146.117 72.3625C146.007 72.2523 145.876 72.1648 145.732 72.1052C145.588 72.0455 145.433 72.0149 145.277 72.0149C145.121 72.0149 144.967 72.0457 144.823 72.1054C144.679 72.1651 144.548 72.2526 144.438 72.3629L140.24 76.5611L136.042 72.3629C135.933 72.2495 135.802 72.1589 135.657 72.0966C135.512 72.0343 135.356 72.0015 135.198 72C135.041 71.9986 134.884 72.0286 134.738 72.0882C134.592 72.1479 134.46 72.236 134.348 72.3474C134.237 72.4589 134.148 72.5914 134.089 72.7373C134.029 72.8832 133.999 73.0396 134 73.1973C134.001 73.3549 134.034 73.5108 134.096 73.6557C134.158 73.8006 134.249 73.9317 134.362 74.0413L138.562 78.2403L134.363 82.4393C134.25 82.5489 134.159 82.6799 134.097 82.8248C134.035 82.9698 134.002 83.1256 134.001 83.2833C134 83.4409 134.03 83.5973 134.089 83.7432C134.149 83.8891 134.237 84.0217 134.349 84.1331C134.461 84.2446 134.593 84.3327 134.739 84.3923C134.885 84.4519 135.041 84.4819 135.199 84.4805C135.357 84.479 135.513 84.4462 135.657 84.3839C135.802 84.3216 135.933 84.2311 136.043 84.1176L140.24 79.9202Z" fill="#767680" fill-opacity="0.12"/>
<path fill-rule="evenodd" clip-rule="evenodd" d="M115.71 371.153L115.701 371.154L115.645 371.182L115.629 371.185L115.618 371.182L115.562 371.154C115.553 371.152 115.547 371.153 115.543 371.158L115.539 371.166L115.526 371.505L115.53 371.521L115.538 371.531L115.62 371.59L115.632 371.593L115.642 371.59L115.724 371.531L115.733 371.518L115.737 371.505L115.723 371.167C115.721 371.158 115.717 371.154 115.71 371.153ZM115.919 371.063L115.909 371.065L115.763 371.138L115.755 371.146L115.752 371.155L115.767 371.495L115.771 371.505L115.777 371.511L115.936 371.584C115.946 371.587 115.954 371.585 115.959 371.578L115.962 371.567L115.935 371.081C115.933 371.071 115.927 371.065 115.919 371.063ZM115.353 371.065C115.35 371.063 115.346 371.062 115.342 371.063C115.338 371.064 115.334 371.066 115.332 371.07L115.327 371.081L115.3 371.567C115.301 371.576 115.305 371.583 115.314 371.586L115.326 371.584L115.485 371.511L115.493 371.504L115.496 371.495L115.509 371.155L115.507 371.146L115.499 371.138L115.353 371.065Z" fill="#767680" fill-opacity="0.12"/>
<path fill-rule="evenodd" clip-rule="evenodd" d="M115.24 363.92L119.438 368.118C119.661 368.341 119.963 368.466 120.278 368.466C120.593 368.466 120.896 368.341 121.118 368.118C121.341 367.896 121.466 367.593 121.466 367.278C121.466 366.963 121.341 366.661 121.118 366.438L116.919 362.24L121.118 358.042C121.228 357.932 121.315 357.801 121.375 357.657C121.435 357.513 121.465 357.358 121.465 357.202C121.465 357.046 121.434 356.892 121.375 356.748C121.315 356.604 121.227 356.473 121.117 356.363C121.007 356.252 120.876 356.165 120.732 356.105C120.588 356.046 120.433 356.015 120.277 356.015C120.121 356.015 119.967 356.046 119.823 356.105C119.679 356.165 119.548 356.253 119.438 356.363L115.24 360.561L111.042 356.363C110.933 356.249 110.802 356.159 110.657 356.097C110.512 356.034 110.356 356.001 110.198 356C110.041 355.999 109.884 356.029 109.738 356.088C109.592 356.148 109.46 356.236 109.348 356.347C109.237 356.459 109.148 356.591 109.089 356.737C109.029 356.883 108.999 357.04 109 357.197C109.001 357.355 109.034 357.511 109.096 357.656C109.158 357.801 109.249 357.932 109.362 358.041L113.562 362.24L109.363 366.439C109.25 366.549 109.159 366.68 109.097 366.825C109.035 366.97 109.002 367.126 109.001 367.283C109 367.441 109.03 367.597 109.089 367.743C109.149 367.889 109.237 368.022 109.349 368.133C109.461 368.245 109.593 368.333 109.739 368.392C109.885 368.452 110.041 368.482 110.199 368.48C110.357 368.479 110.513 368.446 110.657 368.384C110.802 368.322 110.933 368.231 111.043 368.118L115.24 363.92Z" fill="#767680" fill-opacity="0.12"/>
<path fill-rule="evenodd" clip-rule="evenodd" d="M197.091 20.1608L197.084 20.1557L197.024 20.1356L197.011 20.1266L197.005 20.1166L196.985 20.0572C196.981 20.0494 196.976 20.0458 196.969 20.0466L196.961 20.0499L196.712 20.28L196.704 20.294L196.702 20.3069L196.719 20.4065L196.725 20.4172L196.734 20.4217L196.833 20.4384L196.849 20.4362L196.861 20.4289L197.09 20.1804C197.095 20.1729 197.095 20.1664 197.091 20.1608ZM197.302 20.2459L197.294 20.2397L197.138 20.1882H197.127L197.119 20.1927L196.889 20.4435L196.885 20.453L196.885 20.4614L196.946 20.626C196.951 20.6349 196.958 20.6389 196.967 20.6377L196.977 20.6321L197.301 20.2694C197.306 20.2608 197.307 20.253 197.302 20.2459ZM196.901 19.8467C196.9 19.8428 196.898 19.8393 196.894 19.8372C196.891 19.835 196.887 19.8342 196.883 19.835L196.871 19.8395L196.509 20.1641C196.502 20.1712 196.501 20.1789 196.505 20.1871L196.514 20.1944L196.679 20.2548L196.689 20.256L196.697 20.252L196.948 20.0208L196.953 20.0124V20.0012L196.901 19.8467Z" fill="#767680" fill-opacity="0.12"/>
<path fill-rule="evenodd" clip-rule="evenodd" d="M259.637 234.012V239.95C259.637 240.265 259.762 240.567 259.985 240.79C260.208 241.012 260.51 241.137 260.825 241.137C261.14 241.137 261.442 241.012 261.665 240.79C261.888 240.567 262.013 240.265 262.013 239.95L262.012 234.011L267.95 234.012C268.106 234.012 268.26 233.981 268.404 233.921C268.548 233.862 268.679 233.774 268.789 233.664C268.9 233.554 268.987 233.423 269.047 233.278C269.106 233.134 269.137 232.98 269.137 232.824C269.137 232.668 269.106 232.514 269.046 232.37C268.987 232.225 268.899 232.095 268.789 231.984C268.679 231.874 268.548 231.787 268.404 231.727C268.26 231.667 268.105 231.637 267.949 231.637L262.013 231.637L262.013 225.7C262.015 225.542 261.987 225.386 261.928 225.239C261.87 225.093 261.783 224.959 261.673 224.847C261.562 224.734 261.43 224.645 261.285 224.584C261.14 224.523 260.983 224.491 260.826 224.491C260.668 224.491 260.512 224.523 260.367 224.584C260.221 224.644 260.089 224.734 259.979 224.846C259.868 224.959 259.781 225.092 259.722 225.238C259.664 225.385 259.635 225.541 259.638 225.699L259.638 231.638L253.7 231.638C253.542 231.635 253.386 231.664 253.239 231.722C253.093 231.781 252.96 231.868 252.847 231.979C252.735 232.089 252.646 232.221 252.585 232.366C252.524 232.512 252.492 232.668 252.493 232.826C252.493 232.983 252.524 233.139 252.585 233.285C252.646 233.43 252.736 233.562 252.848 233.672C252.961 233.783 253.094 233.87 253.24 233.928C253.387 233.987 253.544 234.015 253.701 234.012H259.637Z" fill="#767680" fill-opacity="0.12"/>
</svg>
