<svg width="73" height="72" viewBox="0 0 73 72" fill="none" xmlns="http://www.w3.org/2000/svg">
<g filter="url(#filter0_n_2669_3122)">
<rect x="6.5" y="6" width="60" height="60" rx="30" fill="#FEE1B9"/>
<rect x="3.5" y="3" width="66" height="66" rx="33" stroke="#FDF4E7" stroke-width="6"/>
<g clip-path="url(#clip0_2669_3122)">
<path fill-rule="evenodd" clip-rule="evenodd" d="M49.8876 42.0761C49.8876 48.2323 44.3092 50.9998 36.4999 50.9998C28.6907 50.9998 23.1123 48.2323 23.1123 42.1196C23.1123 35.4268 26.4597 32.0358 33.1525 28.6449L30.7828 24.2307C30.6414 24.0096 30.5627 23.7543 30.555 23.492C30.5473 23.2296 30.611 22.9701 30.7392 22.7411C30.8674 22.5122 31.0553 22.3223 31.283 22.1917C31.5107 22.0611 31.7695 21.9948 32.0319 21.9998H41.4921C41.738 22.0061 41.9783 22.0748 42.1904 22.1996C42.4024 22.3244 42.5792 22.5011 42.7041 22.713C42.8291 22.9249 42.898 23.1652 42.9045 23.4111C42.911 23.6571 42.8548 23.9006 42.7412 24.1188L39.8474 28.6449C46.5381 31.9903 49.8876 35.3812 49.8876 42.0761ZM37.7946 32.1228C37.7946 31.7795 37.6582 31.4502 37.4154 31.2074C37.1726 30.9646 36.8433 30.8282 36.4999 30.8282C36.1566 30.8282 35.8273 30.9646 35.5845 31.2074C35.3417 31.4502 35.2053 31.7795 35.2053 32.1228V33.4216C34.3278 33.4554 33.4928 33.8084 32.8572 34.4143C32.2216 35.0202 31.829 35.8373 31.7532 36.7122C31.6774 37.587 31.9236 38.4595 32.4456 39.1657C32.9676 39.8718 33.7294 40.3631 34.588 40.5473L37.6392 41.2143C37.952 41.2817 38.2287 41.4624 38.4161 41.7217C38.6035 41.981 38.6882 42.3004 38.654 42.6185C38.6198 42.9366 38.469 43.2307 38.2307 43.4442C37.9925 43.6577 37.6836 43.7754 37.3637 43.7746H35.6362C35.3683 43.775 35.107 43.6924 34.8881 43.5381C34.6692 43.3837 34.5036 43.1653 34.414 42.9129C34.3617 42.7473 34.2766 42.5939 34.1638 42.4619C34.051 42.3298 33.9128 42.2218 33.7574 42.1443C33.602 42.0668 33.4325 42.0213 33.2592 42.0106C33.0859 41.9999 32.9121 42.0242 32.7484 42.082C32.5846 42.1399 32.4342 42.2301 32.306 42.3472C32.1778 42.4644 32.0745 42.6062 32.0022 42.7641C31.93 42.922 31.8902 43.0929 31.8853 43.2665C31.8805 43.4401 31.9106 43.6129 31.9739 43.7746C32.218 44.4622 32.6504 45.0673 33.2217 45.5211C33.793 45.9749 34.4803 46.259 35.2053 46.3411V47.6586C35.2053 48.0019 35.3417 48.3312 35.5845 48.574C35.8273 48.8168 36.1566 48.9532 36.4999 48.9532C36.8433 48.9532 37.1726 48.8168 37.4154 48.574C37.6582 48.3312 37.7946 48.0019 37.7946 47.6586V46.3411C38.7086 46.2372 39.5561 45.8124 40.1864 45.1423C40.8166 44.4722 41.1887 43.6003 41.2364 42.6816C41.2842 41.7629 41.0044 40.8571 40.447 40.1253C39.8896 39.3935 39.0906 38.8832 38.1923 38.6851L35.1411 38.0181C34.8935 37.9675 34.6738 37.8263 34.5248 37.6222C34.3758 37.4181 34.3083 37.1657 34.3355 36.9145C34.3627 36.6633 34.4826 36.4313 34.6718 36.2638C34.8611 36.0963 35.1059 36.0054 35.3586 36.0088H37.3637C37.6319 36.0069 37.894 36.0889 38.1132 36.2435C38.3323 36.398 38.4976 36.6173 38.5859 36.8706C38.7064 37.1862 38.9455 37.4423 39.2522 37.5841C39.5589 37.7259 39.9089 37.7421 40.2274 37.6294C40.546 37.5166 40.8078 37.2838 40.957 36.9806C41.1062 36.6774 41.131 36.328 41.026 36.0068C40.7837 35.3183 40.3518 34.7123 39.7801 34.2586C39.2084 33.8049 38.5201 33.5219 37.7946 33.4423V32.1228Z" fill="#FF9500"/>
</g>
</g>
<defs>
<filter id="filter0_n_2669_3122" x="0.5" y="0" width="72" height="72" filterUnits="userSpaceOnUse" color-interpolation-filters="sRGB">
<feFlood flood-opacity="0" result="BackgroundImageFix"/>
<feBlend mode="normal" in="SourceGraphic" in2="BackgroundImageFix" result="shape"/>
<feTurbulence type="fractalNoise" baseFrequency="2.5 2.5" stitchTiles="stitch" numOctaves="3" result="noise" seed="7061" />
<feColorMatrix in="noise" type="luminanceToAlpha" result="alphaNoise" />
<feComponentTransfer in="alphaNoise" result="coloredNoise1">
<feFuncA type="discrete" tableValues="1 1 1 1 1 1 1 1 1 1 1 1 1 1 1 1 1 1 1 1 1 1 1 1 1 1 1 1 1 1 1 1 1 1 1 1 1 1 1 1 1 1 1 1 1 1 1 1 1 1 1 0 0 0 0 0 0 0 0 0 0 0 0 0 0 0 0 0 0 0 0 0 0 0 0 0 0 0 0 0 0 0 0 0 0 0 0 0 0 0 0 0 0 0 0 0 0 0 0 0 "/>
</feComponentTransfer>
<feComposite operator="in" in2="shape" in="coloredNoise1" result="noise1Clipped" />
<feFlood flood-color="rgba(0, 0, 0, 0.04)" result="color1Flood" />
<feComposite operator="in" in2="noise1Clipped" in="color1Flood" result="color1" />
<feMerge result="effect1_noise_2669_3122">
<feMergeNode in="shape" />
<feMergeNode in="color1" />
</feMerge>
</filter>
<clipPath id="clip0_2669_3122">
<rect width="29" height="29" fill="white" transform="translate(22 22)"/>
</clipPath>
</defs>
</svg>
