<svg width="31" height="30" viewBox="0 0 31 30" fill="none" xmlns="http://www.w3.org/2000/svg">
<rect x="0.5" width="30" height="30" rx="15" fill="#FEF2E2"/>
<path d="M14.2461 8.06605C14.2949 8.0766 14.3453 8.0766 14.3941 8.06605C14.4141 8.06071 14.4264 8.04505 14.4311 8.01905L14.7811 6.02805C14.7824 6.00605 14.7947 5.99705 14.8181 6.00105L16.7611 6.39305C16.7704 6.39305 16.7771 6.39838 16.7811 6.40905L16.7921 6.43505L16.7761 6.59505C16.6667 7.24571 16.5557 7.89671 16.4431 8.54805L16.4591 8.55805L17.5921 8.82305C17.6065 8.82691 17.6217 8.82748 17.6364 8.82471C17.6511 8.82194 17.665 8.8159 17.6771 8.80705C17.7015 8.78919 17.7183 8.76276 17.7241 8.73305L18.0681 6.73205C18.0729 6.71144 18.0841 6.69288 18.1001 6.67905C18.1078 6.67396 18.1165 6.67045 18.1256 6.66874C18.1347 6.66702 18.144 6.66712 18.1531 6.66905C18.7671 6.77405 19.4031 6.92304 20.0431 7.04904C20.0797 7.05904 20.0957 7.08238 20.0911 7.11905C19.9829 7.79283 19.8662 8.46521 19.7411 9.13605C19.7151 9.27905 19.7511 9.32105 19.8741 9.37405C20.3266 9.563 20.732 9.8493 21.0614 10.2126C21.3908 10.5759 21.6362 11.0072 21.7801 11.476C21.8751 11.83 21.8541 12.153 21.8481 12.524C21.8182 12.9824 21.681 13.4272 21.4475 13.8228C21.2141 14.2183 20.8909 14.5534 20.5041 14.801C20.0415 15.1094 19.5289 15.3351 18.9891 15.468C17.9521 15.717 16.7501 15.828 15.6961 15.621C15.5001 15.579 15.3101 15.6 15.1191 15.584C14.6677 15.5438 14.213 15.5989 13.7843 15.7458C13.3557 15.8928 12.9628 16.1283 12.6311 16.437C12.0673 17.0072 11.67 17.7205 11.4821 18.5V18.554C11.4921 18.574 11.5081 18.591 11.5241 18.596L11.6671 18.638C13.1181 18.914 14.9291 19.411 16.2631 19.506C17.5921 19.596 18.5551 18.278 18.1001 16.928C18.0969 16.9155 18.0987 16.9023 18.1051 16.891L18.1211 16.875L18.1371 16.87C19.0111 16.817 19.5821 16.605 20.3611 16.26C20.4661 16.208 20.5411 16.309 20.6251 16.41C21.0751 16.984 21.2991 17.703 21.2551 18.432C21.2423 19.1219 21.0146 19.7905 20.6038 20.3447C20.1929 20.899 19.6194 21.3113 18.9631 21.524C18.6077 21.6347 18.3431 21.6927 18.1691 21.698C17.9916 21.7063 17.8147 21.724 17.6391 21.751C17.6131 21.751 17.5861 21.767 17.5651 21.788C17.5432 21.8098 17.5285 21.8377 17.5231 21.868L17.1731 23.932C17.1731 23.954 17.1581 23.97 17.1421 23.985C17.1331 23.9916 17.1227 23.9959 17.1118 23.9976C17.1008 23.9994 17.0896 23.9985 17.0791 23.995L15.2091 23.625C15.2022 23.6252 15.1954 23.624 15.189 23.6214C15.1827 23.6188 15.1769 23.615 15.1721 23.61C15.1646 23.5989 15.1611 23.5855 15.1621 23.572L15.1771 23.377C15.2851 22.731 15.3911 22.085 15.4951 21.439L15.4901 21.418L15.4741 21.402L15.4531 21.392L14.3571 21.206C14.3399 21.2026 14.3221 21.2027 14.3049 21.2063C14.2877 21.2099 14.2715 21.217 14.2571 21.227C14.2422 21.2385 14.2297 21.2527 14.2204 21.2691C14.2112 21.2854 14.2053 21.3034 14.2031 21.322L13.8751 23.244C13.8637 23.3194 13.8231 23.3494 13.7531 23.334L11.9001 22.964C11.881 22.9595 11.8643 22.9481 11.8531 22.932C11.8439 22.9142 11.8417 22.8934 11.8471 22.874L12.1811 20.936C12.1861 20.9126 12.1826 20.8881 12.1711 20.867C12.1574 20.8462 12.1363 20.8312 12.1121 20.825L9.23708 20.253C9.16308 20.243 9.13108 20.184 9.15208 20.094C9.29508 19.337 9.49708 18.591 9.74008 17.865C9.98708 17.121 10.3101 16.405 10.7041 15.726C11.4551 14.456 12.8541 13.868 14.1981 13.741C14.5001 13.709 14.7911 13.671 15.0981 13.693C15.7701 13.746 16.4271 13.815 17.0991 13.9C17.2264 13.9107 17.3537 13.9107 17.4811 13.9C18.4071 13.836 19.0311 13.052 18.8571 12.068C18.6931 11.147 17.8141 10.956 16.9831 10.76C16.4813 10.6406 15.9765 10.5346 15.4691 10.442C15.3831 10.4274 15.3317 10.4627 15.3151 10.548L15.0031 12.385C15 12.4081 14.9907 12.43 14.9763 12.4483C14.9619 12.4666 14.9428 12.4806 14.9211 12.489C14.9069 12.4952 14.8915 12.4979 14.8761 12.497C14.0281 12.46 13.1811 12.55 12.3761 12.877C12.2027 12.9484 12.0284 13.0174 11.8531 13.084L11.8371 13.079L11.8311 13.069V13.052L12.3401 10.146C12.3931 9.86605 12.2871 9.65305 12.0431 9.51105C11.7891 9.35705 11.4081 9.32505 11.1061 9.26105C11.0981 9.25872 11.0907 9.25477 11.0843 9.24943C11.078 9.24409 11.0728 9.23749 11.0691 9.23005C11.0601 9.21577 11.0565 9.19873 11.0591 9.18205L11.3491 7.48805V7.47205L11.3601 7.46705C11.3662 7.46283 11.3737 7.46105 11.3811 7.46205C12.3344 7.65871 13.2877 7.85971 14.2411 8.06505L14.2461 8.06605Z" fill="#FF9500"/>
</svg>
