<svg width="14" height="14" viewBox="0 0 14 14" fill="none" xmlns="http://www.w3.org/2000/svg">
<g clip-path="url(#clip0_2713_2387)">
<path d="M1.16667 6.99992C1.16667 4.80003 1.16667 3.70009 1.85009 3.01667C2.53351 2.33325 3.63345 2.33325 5.83334 2.33325H8.16667C10.3666 2.33325 11.4665 2.33325 12.1499 3.01667C12.8333 3.70009 12.8333 4.80003 12.8333 6.99992V8.16659C12.8333 10.3665 12.8333 11.4664 12.1499 12.1498C11.4665 12.8333 10.3666 12.8333 8.16667 12.8333H5.83334C3.63345 12.8333 2.53351 12.8333 1.85009 12.1498C1.16667 11.4664 1.16667 10.3665 1.16667 8.16659V6.99992Z" stroke="#8E8E93"/>
<path d="M4.08333 2.33325V1.45825" stroke="#8E8E93" stroke-width="1.5" stroke-linecap="round"/>
<path d="M9.91667 2.33325V1.45825" stroke="#8E8E93" stroke-width="1.5" stroke-linecap="round"/>
<path d="M1.45833 5.25H12.5417" stroke="#8E8E93" stroke-linecap="round"/>
<path d="M10.5 9.91667C10.5 10.2388 10.2388 10.5 9.91666 10.5C9.5945 10.5 9.33333 10.2388 9.33333 9.91667C9.33333 9.5945 9.5945 9.33333 9.91666 9.33333C10.2388 9.33333 10.5 9.5945 10.5 9.91667Z" fill="#8E8E93"/>
<path d="M10.5 7.58333C10.5 7.9055 10.2388 8.16667 9.91666 8.16667C9.5945 8.16667 9.33333 7.9055 9.33333 7.58333C9.33333 7.26117 9.5945 7 9.91666 7C10.2388 7 10.5 7.26117 10.5 7.58333Z" fill="#8E8E93"/>
<path d="M7.58334 9.91667C7.58334 10.2388 7.32217 10.5 7.00001 10.5C6.67784 10.5 6.41667 10.2388 6.41667 9.91667C6.41667 9.5945 6.67784 9.33333 7.00001 9.33333C7.32217 9.33333 7.58334 9.5945 7.58334 9.91667Z" fill="#8E8E93"/>
<path d="M7.58334 7.58333C7.58334 7.9055 7.32217 8.16667 7.00001 8.16667C6.67784 8.16667 6.41667 7.9055 6.41667 7.58333C6.41667 7.26117 6.67784 7 7.00001 7C7.32217 7 7.58334 7.26117 7.58334 7.58333Z" fill="#8E8E93"/>
<path d="M4.66667 9.91667C4.66667 10.2388 4.4055 10.5 4.08333 10.5C3.76117 10.5 3.5 10.2388 3.5 9.91667C3.5 9.5945 3.76117 9.33333 4.08333 9.33333C4.4055 9.33333 4.66667 9.5945 4.66667 9.91667Z" fill="#8E8E93"/>
<path d="M4.66667 7.58333C4.66667 7.9055 4.4055 8.16667 4.08333 8.16667C3.76117 8.16667 3.5 7.9055 3.5 7.58333C3.5 7.26117 3.76117 7 4.08333 7C4.4055 7 4.66667 7.26117 4.66667 7.58333Z" fill="#8E8E93"/>
</g>
<defs>
<clipPath id="clip0_2713_2387">
<rect width="14" height="14" rx="5" fill="white"/>
</clipPath>
</defs>
</svg>
