<svg width="21" height="20" viewBox="0 0 21 20" fill="none" xmlns="http://www.w3.org/2000/svg">
<path d="M2.16675 10.0001C2.16675 6.07171 2.16675 4.10752 3.38714 2.88714C4.60752 1.66675 6.57171 1.66675 10.5001 1.66675C14.4285 1.66675 16.3926 1.66675 17.613 2.88714C18.8334 4.10752 18.8334 6.07171 18.8334 10.0001C18.8334 13.9285 18.8334 15.8926 17.613 17.113C16.3926 18.3334 14.4285 18.3334 10.5001 18.3334C6.57171 18.3334 4.60752 18.3334 3.38714 17.113C2.16675 15.8926 2.16675 13.9285 2.16675 10.0001Z" stroke="#FF9500" stroke-width="1.5"/>
<path d="M6.33325 11.6666L7.83066 9.86969C8.42403 9.15765 8.72072 8.80163 9.11103 8.80163C9.50134 8.80163 9.79803 9.15765 10.3914 9.86969L10.6084 10.1301C11.2018 10.8422 11.4985 11.1982 11.8888 11.1982C12.2791 11.1982 12.5758 10.8422 13.1692 10.1301L14.6666 8.33325" stroke="#FF9500" stroke-width="1.5" stroke-linecap="round"/>
</svg>
