<svg width="16" height="16" viewBox="0 0 16 16" fill="none" xmlns="http://www.w3.org/2000/svg">
<path d="M11.17 1.33337H4.83001C4.05743 1.33337 3.67114 1.33337 3.35959 1.44178C2.76881 1.64734 2.30499 2.12483 2.1053 2.73302C2 3.05374 2 3.45141 2 4.24675V13.5828C2 14.155 2.65666 14.4586 3.07206 14.0784C3.31612 13.8551 3.68388 13.8551 3.92794 14.0784L4.25 14.3732C4.67772 14.7646 5.32228 14.7646 5.75 14.3732C6.17772 13.9818 6.82228 13.9818 7.25 14.3732C7.67772 14.7646 8.32228 14.7646 8.75 14.3732C9.17772 13.9818 9.82228 13.9818 10.25 14.3732C10.6777 14.7646 11.3223 14.7646 11.75 14.3732L12.0721 14.0784C12.3161 13.8551 12.6839 13.8551 12.9279 14.0784C13.3433 14.4586 14 14.155 14 13.5828V4.24675C14 3.45141 14 3.05374 13.8947 2.73302C13.695 2.12483 13.2312 1.64734 12.6404 1.44178C12.3289 1.33337 11.9426 1.33337 11.17 1.33337Z" stroke="#FF9500" stroke-width="1.5"/>
<path d="M6.33333 6.93337L7.28571 8.00004L9.66666 5.33337" stroke="#FF9500" stroke-linecap="round" stroke-linejoin="round"/>
<path d="M5 10.3334H11" stroke="#FF9500" stroke-linecap="round"/>
</svg>
