<svg width="17" height="16" viewBox="0 0 17 16" fill="none" xmlns="http://www.w3.org/2000/svg">
<path d="M15.1667 9.33325C15.1667 11.8474 15.1667 13.1045 14.3856 13.8855C13.6046 14.6666 12.3475 14.6666 9.83333 14.6666" stroke="#FF9500" stroke-width="1.5" stroke-linecap="round"/>
<path d="M7.16666 14.6666C4.6525 14.6666 3.39543 14.6666 2.61438 13.8855C1.83333 13.1045 1.83333 11.8474 1.83333 9.33325" stroke="#FF9500" stroke-width="1.5" stroke-linecap="round"/>
<path d="M7.16666 1.33325C4.6525 1.33325 3.39543 1.33325 2.61438 2.1143C1.83333 2.89535 1.83333 4.15243 1.83333 6.66659" stroke="#FF9500" stroke-width="1.5" stroke-linecap="round"/>
<path d="M9.83333 1.33325C12.3475 1.33325 13.6046 1.33325 14.3856 2.1143C15.1667 2.89535 15.1667 4.15243 15.1667 6.66658" stroke="#FF9500" stroke-width="1.5" stroke-linecap="round"/>
<path d="M3.16667 7.66675C3.16667 7.66675 4.76667 6.33342 8.5 6.33342C12.2333 6.33342 13.8333 7.66675 13.8333 7.66675" stroke="#FF9500" stroke-width="1.5" stroke-linecap="round"/>
<path d="M3.75 6.66675C3.75 7.08096 4.08579 7.41675 4.5 7.41675C4.91421 7.41675 5.25 7.08096 5.25 6.66675H3.75ZM12.1095 4.05727L11.5791 4.5876L11.5791 4.5876L12.1095 4.05727ZM7.16667 3.66675V4.41675H9.83333V3.66675V2.91675H7.16667V3.66675ZM4.5 6.66675H5.25V6.33341H4.5H3.75V6.66675H4.5ZM12.5 6.33341H11.75V6.66675H12.5H13.25V6.33341H12.5ZM9.83333 3.66675V4.41675C10.4831 4.41675 10.8949 4.41834 11.1964 4.45888C11.4763 4.49651 11.5465 4.55492 11.5791 4.5876L12.1095 4.05727L12.6398 3.52694C12.282 3.1691 11.8425 3.03225 11.3963 2.97225C10.9716 2.91516 10.4407 2.91675 9.83333 2.91675V3.66675ZM12.5 6.33341H13.25C13.25 5.72608 13.2516 5.19513 13.1945 4.77045C13.1345 4.3242 12.9976 3.88478 12.6398 3.52694L12.1095 4.05727L11.5791 4.5876C11.6118 4.62029 11.6702 4.6904 11.7079 4.97032C11.7484 5.27182 11.75 5.68367 11.75 6.33341H12.5ZM7.16667 3.66675V2.91675C6.55933 2.91675 6.02838 2.91516 5.6037 2.97225C5.15745 3.03225 4.71803 3.1691 4.36019 3.52694L4.89052 4.05727L5.42085 4.5876C5.45354 4.55492 5.52365 4.49651 5.80357 4.45888C6.10507 4.41834 6.51693 4.41675 7.16667 4.41675V3.66675ZM4.5 6.33341H5.25C5.25 5.68367 5.25159 5.27182 5.29213 4.97032C5.32976 4.6904 5.38817 4.62029 5.42085 4.5876L4.89052 4.05727L4.36019 3.52694C4.00236 3.88478 3.8655 4.3242 3.8055 4.77045C3.74841 5.19513 3.75 5.72608 3.75 6.33341H4.5Z" fill="#FF9500"/>
<path d="M4.5 9.33325V9.66659C4.5 10.9237 4.5 11.5522 4.89052 11.9427C5.28105 12.3333 5.90959 12.3333 7.16667 12.3333H9.83333C11.0904 12.3333 11.719 12.3333 12.1095 11.9427C12.5 11.5522 12.5 10.9237 12.5 9.66659V9.33325" stroke="#FF9500" stroke-width="1.5" stroke-linecap="round"/>
</svg>
