<svg width="105" height="105" viewBox="0 0 105 105" fill="none" xmlns="http://www.w3.org/2000/svg">
<rect width="105" height="105" rx="52.5" fill="#FFF4E6"/>
<path fill-rule="evenodd" clip-rule="evenodd" d="M28.255 48.2168C38.834 30.3223 44.1235 21.375 52.5 21.375C60.8765 21.375 66.166 30.3223 76.745 48.2168L78.0633 50.4467C86.8544 65.3169 91.25 72.7521 87.2773 78.1885C83.3046 83.625 73.4758 83.625 53.8183 83.625H51.1817C31.5242 83.625 21.6954 83.625 17.7227 78.1885C13.75 72.7521 18.1456 65.3169 26.9367 50.4467L28.255 48.2168ZM52.5 36.0729C54.0015 36.0729 55.2188 37.2342 55.2188 38.6667V55.9583C55.2188 57.3908 54.0015 58.5521 52.5 58.5521C50.9985 58.5521 49.7812 57.3908 49.7812 55.9583V38.6667C49.7812 37.2342 50.9985 36.0729 52.5 36.0729ZM52.5 69.7917C54.502 69.7917 56.125 68.2433 56.125 66.3333C56.125 64.4233 54.502 62.875 52.5 62.875C50.498 62.875 48.875 64.4233 48.875 66.3333C48.875 68.2433 50.498 69.7917 52.5 69.7917Z" fill="#FF9500"/>
</svg>
