<svg width="20" height="21" viewBox="0 0 20 21" fill="none" xmlns="http://www.w3.org/2000/svg">
<path d="M5 8.83325H8.33333" stroke="#5856D6" stroke-width="1.5" stroke-linecap="round" stroke-linejoin="round"/>
<path d="M17.3611 9.66675H15.1923C13.7054 9.66675 12.5 10.786 12.5 12.1667C12.5 13.5475 13.7054 14.6667 15.1923 14.6667H17.3611C17.4306 14.6667 17.4653 14.6667 17.4946 14.665C17.944 14.6376 18.302 14.3052 18.3314 13.8879C18.3333 13.8607 18.3333 13.8285 18.3333 13.764V10.5695C18.3333 10.505 18.3333 10.4728 18.3314 10.4456C18.302 10.0283 17.944 9.69588 17.4946 9.66853C17.4653 9.66675 17.4306 9.66675 17.3611 9.66675Z" stroke="#5856D6" stroke-width="1.5"/>
<path d="M17.4708 9.66667C17.406 8.10642 17.1971 7.14979 16.5236 6.47631C15.5473 5.5 13.976 5.5 10.8333 5.5H8.33329C5.1906 5.5 3.61925 5.5 2.64294 6.47631C1.66663 7.45262 1.66663 9.02397 1.66663 12.1667C1.66663 15.3094 1.66663 16.8807 2.64294 17.857C3.61925 18.8333 5.1906 18.8333 8.33329 18.8333H10.8333C13.976 18.8333 15.5473 18.8333 16.5236 17.857C17.1971 17.1835 17.406 16.2269 17.4708 14.6667" stroke="#5856D6" stroke-width="1.5"/>
<path d="M5 5.5L8.1129 3.43594C8.98953 2.85469 10.1771 2.85469 11.0538 3.43594L14.1667 5.5" stroke="#5856D6" stroke-width="1.5" stroke-linecap="round"/>
<path d="M14.9927 12.1667H15.0002" stroke="#5856D6" stroke-width="2" stroke-linecap="round" stroke-linejoin="round"/>
</svg>
