<svg width="20" height="20" viewBox="0 0 20 20" fill="none" xmlns="http://www.w3.org/2000/svg">
<path d="M16.9263 10.5395L17.3577 8.9296C17.8612 7.05036 18.113 6.11075 17.9234 5.2976C17.7737 4.65555 17.437 4.07232 16.9558 3.62164C16.3464 3.05087 15.4068 2.7991 13.5275 2.29556C11.6483 1.79203 10.7087 1.54026 9.89555 1.72985C9.2535 1.87956 8.67026 2.21629 8.21959 2.69747C7.7309 3.21923 7.47606 3.98306 7.09684 5.37143C7.03314 5.60462 6.96594 5.85542 6.89353 6.12566L6.89351 6.12573L6.46214 7.7356C5.95861 9.61484 5.70684 10.5545 5.89643 11.3676C6.04614 12.0096 6.38287 12.5929 6.86405 13.0436C7.47345 13.6143 8.41307 13.8661 10.2923 14.3696L10.2923 14.3696C11.9861 14.8235 12.9166 15.0728 13.6792 14.9788C13.7626 14.9685 13.8441 14.9541 13.9243 14.9353C14.5664 14.7856 15.1496 14.4489 15.6003 13.9677C16.171 13.3583 16.4228 12.4187 16.9263 10.5395Z" stroke="#FF9500" stroke-width="1.5"/>
<path d="M13.6792 14.9784C13.5054 15.5105 13.1999 15.9918 12.7891 16.3766C12.1797 16.9473 11.2401 17.1991 9.36089 17.7026C7.48165 18.2062 6.54204 18.4579 5.72889 18.2683C5.08684 18.1186 4.50361 17.7819 4.05293 17.3007C3.48216 16.6913 3.23039 15.7517 2.72685 13.8725L2.29549 12.2626C1.79195 10.3834 1.54018 9.44375 1.72978 8.6306C1.87948 7.98856 2.21622 7.40532 2.69739 6.95464C3.3068 6.38387 4.24642 6.13211 6.12565 5.62857C6.48118 5.5333 6.80307 5.44705 7.09685 5.37109" stroke="#FF9500" stroke-width="1.5"/>
<path d="M9.81404 8.33325L13.8387 9.41166" stroke="#FF9500" stroke-width="1.5" stroke-linecap="round"/>
<path d="M9.16667 10.748L11.5815 11.3951" stroke="#FF9500" stroke-width="1.5" stroke-linecap="round"/>
</svg>
