<svg width="14" height="14" viewBox="0 0 14 14" fill="none" xmlns="http://www.w3.org/2000/svg">
<path fill-rule="evenodd" clip-rule="evenodd" d="M0.856741 3.77463C1.02724 3.60342 1.30425 3.60284 1.47546 3.77334L3.76135 6.04966C4.06105 6.34812 4.25537 6.54031 4.41719 6.66331C4.56891 6.77862 4.63987 6.79153 4.68687 6.79155C4.73387 6.79156 4.80484 6.77871 4.95664 6.66351C5.11855 6.54063 5.31301 6.34857 5.61293 6.05034L5.77291 5.89126C6.0464 5.61928 6.28213 5.38486 6.49622 5.22236C6.72572 5.04818 6.98072 4.91639 7.29467 4.91636C7.60863 4.91632 7.86366 5.04805 8.0932 5.22218C8.30733 5.38462 8.54312 5.619 8.81668 5.89093L12.3959 9.44834V7.26494C12.3959 7.02332 12.5918 6.82744 12.8334 6.82744C13.075 6.82744 13.2709 7.02332 13.2709 7.26494V10.5C13.2709 10.7416 13.075 10.9375 12.8334 10.9375H9.57716C9.33554 10.9375 9.13966 10.7416 9.13966 10.5C9.13966 10.2584 9.33554 10.0625 9.57716 10.0625H11.7726L8.2202 6.53176C7.92047 6.23385 7.72616 6.04202 7.56436 5.91928C7.41268 5.80421 7.34175 5.79135 7.29478 5.79136C7.2478 5.79136 7.17688 5.80424 7.02522 5.91934C6.86345 6.04212 6.66918 6.234 6.36952 6.53197L6.20953 6.69106C5.93579 6.96329 5.69986 7.19791 5.4856 7.36051C5.25593 7.53481 5.00073 7.66666 4.68655 7.66655C4.37237 7.66643 4.11726 7.5344 3.88772 7.35993C3.67358 7.19717 3.43782 6.96237 3.16428 6.68994C3.15752 6.68321 3.15073 6.67645 3.14393 6.66968L0.858038 4.39335C0.686826 4.22285 0.686245 3.94585 0.856741 3.77463Z" fill="#FF3B30"/>
</svg>
