<svg width="16" height="16" viewBox="0 0 16 16" fill="none" xmlns="http://www.w3.org/2000/svg">
<g clip-path="url(#clip0_2669_2150)">
<path d="M9.57336 2.71915L10.1913 2.10123C11.2151 1.07742 12.875 1.07742 13.8988 2.10123C14.9226 3.12503 14.9226 4.78494 13.8988 5.80874L13.2809 6.42666M9.57336 2.71915C9.57336 2.71915 9.6506 4.03223 10.8092 5.19082C11.9678 6.34942 13.2809 6.42666 13.2809 6.42666M9.57336 2.71915L3.89253 8.39997C3.50775 8.78475 3.31537 8.97714 3.14991 9.18926C2.95474 9.4395 2.7874 9.71025 2.65087 9.99672C2.53514 10.2396 2.4491 10.4977 2.27702 11.0139L1.54785 13.2014M13.2809 6.42666L7.60005 12.1075C7.21527 12.4923 7.02288 12.6847 6.81076 12.8501C6.56052 13.0453 6.28977 13.2126 6.0033 13.3491C5.76044 13.4649 5.50233 13.5509 4.9861 13.723L2.79859 14.4522M2.79859 14.4522L2.26387 14.6304C2.00983 14.7151 1.72975 14.649 1.5404 14.4596C1.35105 14.2703 1.28493 13.9902 1.36961 13.7361L1.54785 13.2014M2.79859 14.4522L1.54785 13.2014" stroke="#FF9500" stroke-width="1.5"/>
</g>
<defs>
<clipPath id="clip0_2669_2150">
<rect width="16" height="16" fill="white"/>
</clipPath>
</defs>
</svg>
