<svg width="21" height="21" viewBox="0 0 21 21" fill="none" xmlns="http://www.w3.org/2000/svg">
<path d="M2.16666 10.5C2.16666 7.35734 2.16666 5.786 3.14297 4.80968C4.11928 3.83337 5.69063 3.83337 8.83332 3.83337H12.1667C15.3094 3.83337 16.8807 3.83337 17.857 4.80968C18.8333 5.786 18.8333 7.35734 18.8333 10.5C18.8333 13.6427 18.8333 15.2141 17.857 16.1904C16.8807 17.1667 15.3094 17.1667 12.1667 17.1667H8.83332C5.69063 17.1667 4.11928 17.1667 3.14297 16.1904C2.16666 15.2141 2.16666 13.6427 2.16666 10.5Z" stroke="#8E8E93" stroke-width="1.5"/>
<path d="M5.5 7.16663L7.29908 8.66586C8.82961 9.9413 9.59488 10.579 10.5 10.579C11.4051 10.579 12.1704 9.9413 13.7009 8.66586L15.5 7.16663" stroke="#8E8E93" stroke-width="1.5" stroke-linecap="round"/>
</svg>
