<svg width="105" height="105" viewBox="0 0 105 105" fill="none" xmlns="http://www.w3.org/2000/svg">
<rect width="105" height="105" rx="52.5" fill="#FFE2E0"/>
<path fill-rule="evenodd" clip-rule="evenodd" d="M90.4166 52.5002C90.4166 73.441 73.4408 90.4168 52.5 90.4168C31.5592 90.4168 14.5833 73.441 14.5833 52.5002C14.5833 31.5594 31.5592 14.5835 52.5 14.5835C73.4408 14.5835 90.4166 31.5594 90.4166 52.5002ZM67.7816 41.0102C68.8922 42.1207 68.8922 43.9213 67.7816 45.0318L48.8233 63.9902C47.7128 65.1007 45.9122 65.1007 44.8016 63.9902L37.2183 56.4068C36.1078 55.2963 36.1078 53.4957 37.2183 52.3852C38.3289 51.2746 40.1294 51.2746 41.24 52.3852L46.8125 57.9577L55.2862 49.4839L63.76 41.0102C64.8705 39.8996 66.6711 39.8996 67.7816 41.0102Z" fill="#FF3B30"/>
</svg>
