<svg width="31" height="30" viewBox="0 0 31 30" fill="none" xmlns="http://www.w3.org/2000/svg">
<rect x="0.5" width="30" height="30" rx="15" fill="#E8ECF8"/>
<path d="M15.4999 12.707L9.81592 15L15.4999 6V12.707Z" fill="url(#paint0_linear_2669_1010)"/>
<path d="M15.5 12.707L21.184 15L15.5 6V12.707Z" fill="url(#paint1_linear_2669_1010)"/>
<path d="M15.4999 17.843L9.81592 14.849L15.4999 12.632V17.843Z" fill="url(#paint2_linear_2669_1010)"/>
<path d="M15.5049 17.843L21.1849 14.849L15.5049 12.632V17.843Z" fill="#FBFCF7"/>
<path d="M18.498 11.158L18.2 16.43L15.433 12.83L12.686 16.558L12.364 11.456L12.5 11.452L12.794 16.17L15.428 12.603L18.08 16.051L18.36 11.149L18.502 11.158H18.498Z" fill="#B0B4E9"/>
<path d="M12.4499 11.689C12.637 11.6911 12.8172 11.6189 12.9511 11.4882C13.085 11.3575 13.1615 11.179 13.1639 10.992C13.1613 10.8049 13.0845 10.6265 12.9504 10.496C12.8163 10.3655 12.636 10.2936 12.4489 10.296C12.2618 10.2936 12.0814 10.3655 11.9474 10.496C11.8133 10.6265 11.7365 10.8049 11.7339 10.992C11.7339 11.377 12.0549 11.689 12.4499 11.689Z" fill="url(#paint3_linear_2669_1010)"/>
<path d="M12.6099 10.458C12.6669 10.42 12.7899 10.478 12.8469 10.51C12.8609 10.562 12.8849 10.671 12.8189 10.7C12.7389 10.733 12.7479 10.643 12.6669 10.614C12.5869 10.581 12.5299 10.51 12.6049 10.458H12.6099Z" fill="#DADCF4"/>
<path d="M15.5038 13.3521C15.5966 13.3534 15.6888 13.3364 15.775 13.3021C15.8612 13.2677 15.9398 13.2167 16.0063 13.152C16.0728 13.0873 16.1259 13.0101 16.1626 12.9248C16.1992 12.8395 16.2186 12.7479 16.2198 12.6551C16.2185 12.5623 16.199 12.4708 16.1623 12.3856C16.1256 12.3005 16.0725 12.2234 16.006 12.1587C15.9395 12.0941 15.8609 12.0432 15.7748 12.009C15.6886 11.9747 15.5965 11.9577 15.5038 11.9591C15.3167 11.9567 15.1364 12.0286 15.0023 12.1591C14.8682 12.2896 14.7915 12.468 14.7888 12.6551C14.7888 13.0401 15.1088 13.3521 15.5038 13.3521Z" fill="url(#paint4_linear_2669_1010)"/>
<path d="M15.6609 12.125C15.7229 12.083 15.8459 12.14 15.8979 12.173C15.9179 12.23 15.9359 12.339 15.8749 12.363C15.7939 12.395 15.8029 12.31 15.7229 12.277C15.6379 12.249 15.5809 12.177 15.6609 12.125Z" fill="#DADCF4"/>
<path d="M18.4498 11.689C18.5426 11.6903 18.6348 11.6733 18.721 11.639C18.8072 11.6046 18.8859 11.5537 18.9524 11.4889C19.0189 11.4242 19.0719 11.347 19.1086 11.2617C19.1452 11.1764 19.1647 11.0848 19.1658 10.992C19.1632 10.8049 19.0864 10.6265 18.9524 10.496C18.8183 10.3655 18.6379 10.2936 18.4508 10.296C18.2638 10.2936 18.0834 10.3655 17.9493 10.496C17.8153 10.6265 17.7385 10.8049 17.7358 10.992C17.7358 11.377 18.0558 11.689 18.4508 11.689" fill="url(#paint5_linear_2669_1010)"/>
<path d="M18.6079 10.458C18.6689 10.42 18.7919 10.478 18.8439 10.51C18.8639 10.562 18.8819 10.671 18.8209 10.7C18.7409 10.733 18.7499 10.643 18.6639 10.614C18.5839 10.581 18.5319 10.51 18.6079 10.458Z" fill="#DADCF4"/>
<path d="M18.1479 17.057C18.3349 17.0594 18.5153 16.9875 18.6494 16.857C18.7834 16.7264 18.8602 16.5481 18.8629 16.361C18.8617 16.2683 18.8423 16.1767 18.8057 16.0915C18.7691 16.0063 18.7161 15.9291 18.6497 15.8644C18.5833 15.7997 18.5048 15.7487 18.4187 15.7143C18.3326 15.6799 18.2406 15.6628 18.1479 15.664C18.0551 15.6628 17.9631 15.6799 17.877 15.7143C17.7909 15.7487 17.7124 15.7997 17.646 15.8644C17.5796 15.9291 17.5266 16.0063 17.49 16.0915C17.4535 16.1767 17.434 16.2683 17.4329 16.361C17.4329 16.745 17.7529 17.057 18.1479 17.057Z" fill="url(#paint6_linear_2669_1010)"/>
<path d="M18.3039 15.825C18.3659 15.787 18.4889 15.844 18.5409 15.877C18.5599 15.929 18.5789 16.037 18.5169 16.067C18.4369 16.099 18.4469 16.009 18.3609 15.981C18.2809 15.948 18.2279 15.877 18.3039 15.825Z" fill="#DADCF4"/>
<path d="M12.715 17.057C12.9021 17.0594 13.0825 16.9875 13.2165 16.857C13.3506 16.7265 13.4274 16.5481 13.43 16.361C13.4288 16.2683 13.4094 16.1767 13.3729 16.0915C13.3363 16.0063 13.2833 15.9291 13.2169 15.8644C13.1505 15.7997 13.072 15.7487 12.9859 15.7143C12.8998 15.6799 12.8077 15.6628 12.715 15.664C12.6222 15.6627 12.5301 15.6797 12.4438 15.714C12.3576 15.7483 12.279 15.7993 12.2125 15.8641C12.146 15.9288 12.0929 16.006 12.0563 16.0913C12.0197 16.1766 12.0002 16.2682 11.999 16.361C11.999 16.745 12.319 17.057 12.715 17.057Z" fill="url(#paint7_linear_2669_1010)"/>
<path d="M12.871 15.825C12.933 15.787 13.061 15.844 13.108 15.877C13.128 15.929 13.151 16.037 13.084 16.067C13.004 16.099 13.014 16.009 12.933 15.981C12.853 15.948 12.796 15.877 12.871 15.825Z" fill="#DADCF4"/>
<path d="M15.5519 19.169L9.86792 15.947L15.5519 24V19.169Z" fill="url(#paint8_linear_2669_1010)"/>
<path d="M15.5 19.169L21.184 15.947L15.5 24V19.169Z" fill="#C8CCF7"/>
<defs>
<linearGradient id="paint0_linear_2669_1010" x1="10.0149" y1="20.912" x2="19.2519" y2="9.837" gradientUnits="userSpaceOnUse">
<stop stop-color="#A795F2"/>
<stop offset="1" stop-color="#B7D0E1"/>
</linearGradient>
<linearGradient id="paint1_linear_2669_1010" x1="9.816" y1="9.553" x2="17.736" y2="22.835" gradientUnits="userSpaceOnUse">
<stop stop-color="#E1F0F3"/>
<stop offset="1" stop-color="#B3DBF5"/>
</linearGradient>
<linearGradient id="paint2_linear_2669_1010" x1="21.0329" y1="9.02796" x2="10.8389" y2="11.21" gradientUnits="userSpaceOnUse">
<stop stop-color="#DEE1F9"/>
<stop offset="1" stop-color="#D6CDFB"/>
</linearGradient>
<linearGradient id="paint3_linear_2669_1010" x1="20.5439" y1="9.61196" x2="9.51688" y2="16.161" gradientUnits="userSpaceOnUse">
<stop stop-color="#C0C7F2"/>
<stop offset="1" stop-color="#7890D6"/>
</linearGradient>
<linearGradient id="paint4_linear_2669_1010" x1="20.5058" y1="9.67306" x2="9.50382" y2="16.1741" gradientUnits="userSpaceOnUse">
<stop stop-color="#C0C7F2"/>
<stop offset="1" stop-color="#7890D6"/>
</linearGradient>
<linearGradient id="paint5_linear_2669_1010" x1="20.5058" y1="9.61196" x2="9.47884" y2="16.161" gradientUnits="userSpaceOnUse">
<stop stop-color="#C0C7F2"/>
<stop offset="1" stop-color="#7890D6"/>
</linearGradient>
<linearGradient id="paint6_linear_2669_1010" x1="20.5069" y1="9.613" x2="9.50386" y2="16.114" gradientUnits="userSpaceOnUse">
<stop stop-color="#C0C7F2"/>
<stop offset="1" stop-color="#7890D6"/>
</linearGradient>
<linearGradient id="paint7_linear_2669_1010" x1="20.544" y1="9.61301" x2="9.54202" y2="16.114" gradientUnits="userSpaceOnUse">
<stop stop-color="#C0C7F2"/>
<stop offset="1" stop-color="#7890D6"/>
</linearGradient>
<linearGradient id="paint8_linear_2669_1010" x1="11.0279" y1="7.05902" x2="23.5009" y2="19.409" gradientUnits="userSpaceOnUse">
<stop stop-color="#6E89D3"/>
<stop offset="1" stop-color="#677FF0"/>
</linearGradient>
</defs>
</svg>
