<svg width="16" height="16" viewBox="0 0 16 16" fill="none" xmlns="http://www.w3.org/2000/svg">
<circle cx="5.99996" cy="6.00001" r="1.33333" stroke="#FF9500"/>
<path d="M8.66671 10C8.66671 10.7364 8.66671 11.3333 6.00004 11.3333C3.33337 11.3333 3.33337 10.7364 3.33337 10C3.33337 9.26363 4.52728 8.66667 6.00004 8.66667C7.4728 8.66667 8.66671 9.26363 8.66671 10Z" stroke="#FF9500"/>
<path d="M1.33337 8C1.33337 5.48585 1.33337 4.22877 2.11442 3.44772C2.89547 2.66667 4.15255 2.66667 6.66671 2.66667H9.33337C11.8475 2.66667 13.1046 2.66667 13.8857 3.44772C14.6667 4.22877 14.6667 5.48585 14.6667 8C14.6667 10.5142 14.6667 11.7712 13.8857 12.5523C13.1046 13.3333 11.8475 13.3333 9.33337 13.3333H6.66671C4.15255 13.3333 2.89547 13.3333 2.11442 12.5523C1.33337 11.7712 1.33337 10.5142 1.33337 8Z" stroke="#FF9500" stroke-width="1.5"/>
<path d="M12.6666 8H9.99996" stroke="#FF9500" stroke-linecap="round"/>
<path d="M12.6666 6H9.33329" stroke="#FF9500" stroke-linecap="round"/>
<path d="M12.6666 10H10.6666" stroke="#FF9500" stroke-linecap="round"/>
</svg>
