<svg width="20" height="20" viewBox="0 0 20 20" fill="none" xmlns="http://www.w3.org/2000/svg">
<g clip-path="url(#clip0_2669_2211)">
<path d="M14.8698 0.833252H5.1302C2.7571 0.833252 0.833328 2.75703 0.833328 5.13013V14.8697C0.833328 17.2428 2.7571 19.1666 5.1302 19.1666H14.8698C17.2429 19.1666 19.1667 17.2428 19.1667 14.8697V5.13013C19.1667 2.75703 17.2429 0.833252 14.8698 0.833252Z" fill="url(#paint0_radial_2669_2211)"/>
<path d="M14.8698 0.833252H5.1302C2.7571 0.833252 0.833328 2.75703 0.833328 5.13013V14.8697C0.833328 17.2428 2.7571 19.1666 5.1302 19.1666H14.8698C17.2429 19.1666 19.1667 17.2428 19.1667 14.8697V5.13013C19.1667 2.75703 17.2429 0.833252 14.8698 0.833252Z" fill="url(#paint1_radial_2669_2211)"/>
<path d="M10.0006 2.83838C8.05573 2.83838 7.81159 2.8469 7.04775 2.88163C6.28534 2.91658 5.76492 3.03725 5.30959 3.21436C4.83851 3.39726 4.43897 3.64197 4.04094 4.04014C3.64255 4.43825 3.39784 4.83779 3.21436 5.30865C3.03676 5.76412 2.91595 6.28476 2.88164 7.04681C2.84748 7.81072 2.83853 8.05493 2.83853 9.99991C2.83853 11.9449 2.84713 12.1882 2.88179 12.9521C2.91688 13.7145 3.03755 14.2349 3.21451 14.6902C3.39755 15.1613 3.64226 15.5609 4.04044 15.9589C4.4384 16.3573 4.83794 16.6026 5.30866 16.7855C5.76435 16.9626 6.28484 17.0832 7.04711 17.1182C7.81102 17.1529 8.05494 17.1614 9.99978 17.1614C11.9449 17.1614 12.1882 17.1529 12.9521 17.1182C13.7145 17.0832 14.2355 16.9626 14.6912 16.7855C15.162 16.6026 15.561 16.3573 15.9589 15.9589C16.3573 15.5609 16.6019 15.1613 16.7855 14.6904C16.9615 14.2349 17.0824 13.7143 17.1182 12.9522C17.1525 12.1884 17.1614 11.9449 17.1614 9.99991C17.1614 8.05493 17.1525 7.81087 17.1182 7.04695C17.0824 6.28454 16.9615 5.76419 16.7855 5.30887C16.6019 4.83779 16.3573 4.43825 15.9589 4.04014C15.5606 3.64182 15.1622 3.39712 14.6907 3.21443C14.2342 3.03725 13.7135 2.91651 12.9511 2.88163C12.1872 2.8469 11.944 2.83838 9.99841 2.83838H10.0006ZM9.35818 4.12895C9.54889 4.12866 9.76166 4.12895 10.0006 4.12895C11.9128 4.12895 12.1394 4.13582 12.8945 4.17012C13.5928 4.20206 13.9717 4.31872 14.2242 4.41676C14.5584 4.54653 14.7967 4.70172 15.0472 4.95244C15.2978 5.20309 15.4529 5.44178 15.5831 5.77601C15.6811 6.02809 15.7979 6.40708 15.8297 7.10532C15.864 7.86028 15.8715 8.08701 15.8715 9.99826C15.8715 11.9095 15.864 12.1363 15.8297 12.8912C15.7978 13.5894 15.6811 13.9684 15.5831 14.2206C15.4533 14.5548 15.2978 14.7928 15.0472 15.0433C14.7965 15.2939 14.5585 15.4491 14.2242 15.5789C13.972 15.6774 13.5928 15.7937 12.8945 15.8257C12.1395 15.86 11.9128 15.8674 10.0006 15.8674C8.08838 15.8674 7.86172 15.86 7.10683 15.8257C6.40859 15.7935 6.02961 15.6768 5.77695 15.5788C5.4428 15.4489 5.20403 15.2938 4.95338 15.0432C4.70273 14.7925 4.54761 14.5544 4.41749 14.22C4.31945 13.9679 4.20265 13.5889 4.17085 12.8906C4.13655 12.1357 4.12967 11.9089 4.12967 9.99647C4.12967 8.084 4.13655 7.85849 4.17085 7.10353C4.20279 6.40529 4.31945 6.0263 4.41749 5.77386C4.54733 5.43964 4.70273 5.20094 4.95345 4.95029C5.20418 4.69964 5.4428 4.54445 5.77702 4.4144C6.02946 4.31593 6.40859 4.19956 7.10683 4.16747C7.76748 4.13761 8.0235 4.12866 9.35818 4.12715V4.12895ZM13.8234 5.31803C13.349 5.31803 12.964 5.7026 12.964 6.17712C12.964 6.65157 13.349 7.0365 13.8234 7.0365C14.2979 7.0365 14.6828 6.65157 14.6828 6.17712C14.6828 5.70268 14.2979 5.31775 13.8234 5.31775V5.31803ZM10.0006 6.32214C7.96965 6.32214 6.32294 7.96885 6.32294 9.99991C6.32294 12.031 7.96965 13.6769 10.0006 13.6769C12.0317 13.6769 13.6778 12.031 13.6778 9.99991C13.6778 7.96892 12.0316 6.32214 10.0005 6.32214H10.0006ZM10.0006 7.61271C11.319 7.61271 12.3878 8.68141 12.3878 9.99991C12.3878 11.3183 11.319 12.3871 10.0006 12.3871C8.68228 12.3871 7.61351 11.3183 7.61351 9.99991C7.61351 8.68141 8.68221 7.61271 10.0006 7.61271Z" fill="white"/>
</g>
<defs>
<radialGradient id="paint0_radial_2669_2211" cx="0" cy="0" r="1" gradientUnits="userSpaceOnUse" gradientTransform="translate(5.70312 20.5786) rotate(-90) scale(18.1697 16.8993)">
<stop stop-color="#FFDD55"/>
<stop offset="0.1" stop-color="#FFDD55"/>
<stop offset="0.5" stop-color="#FF543E"/>
<stop offset="1" stop-color="#C837AB"/>
</radialGradient>
<radialGradient id="paint1_radial_2669_2211" cx="0" cy="0" r="1" gradientUnits="userSpaceOnUse" gradientTransform="translate(-2.23758 2.1539) rotate(78.681) scale(8.12195 33.479)">
<stop stop-color="#3771C8"/>
<stop offset="0.128" stop-color="#3771C8"/>
<stop offset="1" stop-color="#6600FF" stop-opacity="0"/>
</radialGradient>
<clipPath id="clip0_2669_2211">
<rect width="20" height="20" fill="white"/>
</clipPath>
</defs>
</svg>
