<svg width="16" height="16" viewBox="0 0 16 16" fill="none" xmlns="http://www.w3.org/2000/svg">
<g clip-path="url(#clip0_2646_525)">
<path d="M3.15236 10.7579C2.12201 9.72759 1.60683 9.21241 1.41513 8.54401C1.22344 7.8756 1.38726 7.16569 1.71492 5.74586L1.90387 4.92707C2.17952 3.73256 2.31735 3.13531 2.72634 2.72632C3.13532 2.31734 3.73258 2.17951 4.92709 1.90385L5.74588 1.7149C7.1657 1.38725 7.87562 1.22342 8.54402 1.41512C9.21243 1.60681 9.72761 2.12199 10.758 3.15235L11.9777 4.37211C13.7704 6.16476 14.6667 7.06109 14.6667 8.17491C14.6667 9.28872 13.7704 10.185 11.9777 11.9777C10.1851 13.7704 9.28873 14.6667 8.17492 14.6667C7.06111 14.6667 6.16478 13.7704 4.37212 11.9777L3.15236 10.7579Z" stroke="#FF9500" stroke-width="1.5"/>
<path d="M10.2595 10.2595C10.65 9.86903 10.7028 9.28862 10.3774 8.96319C10.0519 8.63775 9.47152 8.69051 9.08099 9.08104C8.69047 9.47156 8.11007 9.52433 7.78463 9.19889C7.45919 8.87345 7.51196 8.29305 7.90248 7.90253M10.2595 10.2595L10.4952 10.4953M10.2595 10.2595C9.99218 10.5269 9.63588 10.6359 9.33329 10.5738M7.66678 7.66682L7.90248 7.90253M7.90248 7.90253C8.12329 7.68171 8.40482 7.56888 8.66663 7.57135" stroke="#FF9500" stroke-linecap="round"/>
<circle cx="5.73804" cy="5.91942" r="1.33333" transform="rotate(-45 5.73804 5.91942)" stroke="#FF9500"/>
</g>
<defs>
<clipPath id="clip0_2646_525">
<rect width="16" height="16" fill="white"/>
</clipPath>
</defs>
</svg>
