<svg width="14" height="14" viewBox="0 0 14 14" fill="none" xmlns="http://www.w3.org/2000/svg">
<g clip-path="url(#clip0_2669_1910)">
<path d="M5.25 8.75L8.75 5.25" stroke="#8E8E93" stroke-linecap="round"/>
<path d="M9.04167 8.45833C9.04167 8.7805 8.7805 9.04167 8.45833 9.04167C8.13617 9.04167 7.875 8.7805 7.875 8.45833C7.875 8.13617 8.13617 7.875 8.45833 7.875C8.7805 7.875 9.04167 8.13617 9.04167 8.45833Z" fill="#8E8E93"/>
<path d="M6.12499 5.54159C6.12499 5.86375 5.86383 6.12492 5.54166 6.12492C5.2195 6.12492 4.95833 5.86375 4.95833 5.54159C4.95833 5.21942 5.2195 4.95825 5.54166 4.95825C5.86383 4.95825 6.12499 5.21942 6.12499 5.54159Z" fill="#8E8E93"/>
<path d="M1.16667 7.00008C1.16667 4.25022 1.16667 2.87529 2.02094 2.02102C2.87522 1.16675 4.25015 1.16675 7 1.16675C9.74986 1.16675 11.1248 1.16675 11.9791 2.02102C12.8333 2.87529 12.8333 4.25022 12.8333 7.00008C12.8333 9.74994 12.8333 11.1249 11.9791 11.9791C11.1248 12.8334 9.74986 12.8334 7 12.8334C4.25015 12.8334 2.87522 12.8334 2.02094 11.9791C1.16667 11.1249 1.16667 9.74994 1.16667 7.00008Z" stroke="#8E8E93"/>
</g>
<defs>
<clipPath id="clip0_2669_1910">
<rect width="14" height="14" fill="white"/>
</clipPath>
</defs>
</svg>
