<svg width="16" height="16" viewBox="0 0 16 16" fill="none" xmlns="http://www.w3.org/2000/svg">
<g clip-path="url(#clip0_2669_1930)">
<path fill-rule="evenodd" clip-rule="evenodd" d="M7.3832 5.00549C6.49748 4.48255 5.5 5.19369 5.5 6.14202V9.85781C5.5 10.8062 6.49749 11.5173 7.3832 10.9943L10.53 9.13646C11.3789 8.63526 11.3789 7.36458 10.53 6.86338L7.3832 5.00549ZM6.5 6.14202C6.5 6.0097 6.5641 5.91715 6.63965 5.86991C6.71276 5.82419 6.79457 5.81924 6.87479 5.8666L10.0216 7.7245C10.11 7.77671 10.1667 7.87645 10.1667 7.99992C10.1667 8.12339 10.11 8.22313 10.0216 8.27534L6.87479 10.1332C6.79457 10.1806 6.71276 10.1756 6.63965 10.1299C6.5641 10.0827 6.5 9.99013 6.5 9.85781V6.14202Z" fill="white"/>
<path fill-rule="evenodd" clip-rule="evenodd" d="M8 0.833252C4.04196 0.833252 0.833336 4.04188 0.833336 7.99992C0.833336 11.958 4.04196 15.1666 8 15.1666C11.958 15.1666 15.1667 11.958 15.1667 7.99992C15.1667 4.04188 11.958 0.833252 8 0.833252ZM1.83334 7.99992C1.83334 4.59416 4.59425 1.83325 8 1.83325C11.4058 1.83325 14.1667 4.59416 14.1667 7.99992C14.1667 11.4057 11.4058 14.1666 8 14.1666C4.59425 14.1666 1.83334 11.4057 1.83334 7.99992Z" fill="white"/>
</g>
<defs>
<clipPath id="clip0_2669_1930">
<rect width="16" height="16" fill="white"/>
</clipPath>
</defs>
</svg>
