<svg width="122" height="122" viewBox="0 0 122 122" fill="none" xmlns="http://www.w3.org/2000/svg">
<path d="M43.8191 13.9717C43.8191 11.7625 42.0282 9.97168 39.8191 9.97168H13.948C11.7389 9.97168 9.948 11.7625 9.948 13.9717V39.9238C9.948 42.133 11.7389 43.9238 13.948 43.9238H39.8191C42.0282 43.9238 43.8191 42.133 43.8191 39.9238V13.9717ZM39.1131 35.2066C39.1131 37.4157 37.3223 39.2066 35.1131 39.2066H18.654C16.4448 39.2066 14.654 37.4157 14.654 35.2066V18.6889C14.654 16.4798 16.4448 14.6889 18.654 14.6889H35.1131C37.3223 14.6889 39.1131 16.4798 39.1131 18.6889V35.2066Z" fill="white"/>
<path d="M30.2329 19.5811H23.5342C21.325 19.5811 19.5342 21.3719 19.5342 23.5811V30.315C19.5342 32.5241 21.325 34.315 23.5342 34.315H30.2329C32.4421 34.315 34.2329 32.5241 34.2329 30.315V23.5811C34.2329 21.3719 32.4421 19.5811 30.2329 19.5811Z" fill="white"/>
<path d="M82.1809 9.97168C79.9718 9.97168 78.1809 11.7625 78.1809 13.9717V39.9238C78.1809 42.133 79.9718 43.9238 82.1809 43.9238H108.052C110.261 43.9238 112.052 42.133 112.052 39.9238V13.9717C112.052 11.7625 110.261 9.97168 108.052 9.97168H82.1809ZM107.346 35.2066C107.346 37.4157 105.555 39.2066 103.346 39.2066H86.8869C84.6777 39.2066 82.8869 37.4157 82.8869 35.2066V18.6889C82.8869 16.4798 84.6777 14.6889 86.8869 14.6889H103.346C105.555 14.6889 107.346 16.4798 107.346 18.6889V35.2066Z" fill="white"/>
<path d="M98.4658 19.5811H91.7671C89.558 19.5811 87.7671 21.3719 87.7671 23.5811V30.315C87.7671 32.5241 89.5579 34.315 91.7671 34.315H98.4658C100.675 34.315 102.466 32.5241 102.466 30.315V23.5811C102.466 21.3719 100.675 19.5811 98.4658 19.5811Z" fill="white"/>
<path d="M9.948 107.885C9.948 110.094 11.7389 111.885 13.948 111.885H39.8191C42.0282 111.885 43.8191 110.094 43.8191 107.885V81.9326C43.8191 79.7235 42.0282 77.9326 39.8191 77.9326H13.948C11.7389 77.9326 9.948 79.7235 9.948 81.9326V107.885ZM14.654 86.6498C14.654 84.4407 16.4448 82.6498 18.654 82.6498H35.1131C37.3223 82.6498 39.1131 84.4407 39.1131 86.6498V103.168C39.1131 105.377 37.3223 107.168 35.1131 107.168H18.654C16.4448 107.168 14.654 105.377 14.654 103.168V86.6498Z" fill="white"/>
<path d="M30.2329 87.542H23.5342C21.325 87.542 19.5342 89.3329 19.5342 91.542V98.2759C19.5342 100.485 21.325 102.276 23.5342 102.276H30.2329C32.4421 102.276 34.2329 100.485 34.2329 98.2759V91.542C34.2329 89.3329 32.4421 87.542 30.2329 87.542Z" fill="white"/>
<path d="M19.5342 48.7622H9.948V53.6384H19.5342V48.7622Z" fill="white"/>
<path d="M39.026 53.8707H43.9133V58.5399H34.2329V59.2072V63.4169V68.2781V73.1542V73.1566H39.026V73.1542H48.8445V68.2781H39.026V63.4169H48.8445V68.2757H53.6376V63.4169V59.2072V58.5399H48.7064V48.978H43.9133V48.9945H39.026V53.8707Z" fill="white"/>
<path d="M67.9008 63.416V68.293H63.1077V73.1542H58.3146V78.0335H53.6377V82.879H48.8446V73.1565L53.6377 73.1542V68.278H58.4308V63.416H67.9008Z" fill="white"/>
<path d="M77.7969 87.5415V82.8786V82.6646V78.0024H73.0038V82.6646H58.4306V87.5415H63.1656V92.7072H58.4306V87.5415H53.6376V92.6073H48.7244V97.4843H53.6376V102.275H48.7244V111.885H53.6376H58.1944H58.4306V102.275H63.1656V97.3914H67.9587V87.5415H77.7969Z" fill="white"/>
<path d="M72.752 102.276V107.152H87.3542V112.028H102.09V107.152H92.1182V102.276V97.3916H87.3251V102.276H72.752Z" fill="white"/>
<path d="M72.7518 107.152H63.2238V112.028H72.7518V107.152Z" fill="white"/>
<path d="M77.8911 58.5396H67.9006V63.4157H77.8911V58.5396Z" fill="white"/>
<path d="M106.522 63.4201V68.2325H111.296V73.1173H106.503V68.2325H101.71V73.1173H96.9166V68.2325H92.1565V58.5431L101.656 58.5345V53.7936H96.7439V48.9175H106.449V53.7936V58.5431H111.441V63.4201H106.522Z" fill="white"/>
<path d="M63.1077 73.1565V78.0327H67.9008V73.1691H72.6938V68.293H67.9008V73.1565H63.1077Z" fill="white"/>
<path d="M72.7519 97.3916H67.9589V102.276H72.7519V97.3916Z" fill="white"/>
<path d="M101.709 97.3853H96.9158V102.269H101.709V97.3853Z" fill="white"/>
<path d="M82.5988 68.293H77.8057V73.1691H82.5988V68.293Z" fill="white"/>
<path d="M77.8919 58.5398H82.6842V53.7998H92.3606V48.9229H77.8911V53.7998H77.8919V58.5398Z" fill="white"/>
<path d="M14.7411 58.519H9.948V73.1562H14.7411V58.519Z" fill="white"/>
<path d="M53.476 48.9943H53.6377V58.5397H58.4308V53.5172H63.2238V48.9943H70.3546V48.9778H73.0298V29.4354H68.2367V34.5012H63.2238V39.3058H68.2367V44.1898H63.2238V39.3058H58.4308V44.1898H53.4995V29.5141H58.2926V9.97168H53.4995V14.8573H48.7064V24.6285H53.4995V29.4354H48.7064V48.9778H53.476V48.9943Z" fill="white"/>
<path d="M106.503 82.8239V87.9228H101.71V82.8239H96.9143V73.1172H92.1542V68.2324H87.3611V73.1692H82.5986V87.5411H77.7969V92.4181H82.1465V97.3918H87.325V92.4181H92.1181V87.5293L92.1212 87.5356H96.9143V87.5152L96.9166 87.5356V92.4126H101.71V97.3863H106.503V107.099H111.296V82.8247H106.503V82.8239ZM92.1181 82.6587H87.3917V77.9706H92.1212L92.1181 82.6587Z" fill="white"/>
<path d="M106.502 73.1172H101.709V82.8239H106.502V73.1172Z" fill="white"/>
<path d="M96.9165 92.4126H92.1211V97.3863H96.9165V92.4126Z" fill="white"/>
<path d="M72.9928 14.7762V9.97168H68.2366H64.5747H63.2238V19.8263H68.2366V14.7762H72.9928Z" fill="white"/>
<path d="M68.2366 24.6309H63.2238V29.4354H68.2366V24.6309Z" fill="white"/>
<path d="M73.2496 19.8262H68.2367V24.6307H73.2496V19.8262Z" fill="white"/>
<path d="M29.1204 68.2754H24.3273V73.1563H29.1204V68.2754Z" fill="white"/>
<path d="M29.1204 63.6318V48.9946H24.3273V53.6387H19.5342V68.2758H24.3273V63.6318H29.1204Z" fill="white"/>
<path d="M1.89651 24.0314C0.849348 24.0314 0 23.1801 0 22.1304V1.90105C0 0.851381 0.849348 0 1.89651 0H22.0768C23.1239 0 23.9733 0.851381 23.9733 1.90105C23.9733 2.95072 23.1239 3.8021 22.0768 3.8021H3.79302V22.1296C3.79302 23.1793 2.94367 24.0306 1.89651 24.0306V24.0314Z" fill="white" fill-opacity="0.2"/>
<path d="M120.103 24.0314C119.056 24.0314 118.207 23.1801 118.207 22.1304V3.8021H99.9231C98.876 3.8021 98.0266 2.95072 98.0266 1.90105C98.0266 0.851381 98.876 0 99.9231 0H120.103C121.151 0 122 0.851381 122 1.90105V22.1304C122 23.1801 121.151 24.0314 120.103 24.0314Z" fill="white" fill-opacity="0.2"/>
<path d="M22.0776 122H1.89651C0.849348 122 0 121.149 0 120.099V99.8703C0 98.8206 0.849348 97.9692 1.89651 97.9692C2.94367 97.9692 3.79302 98.8206 3.79302 99.8703V118.198H22.0768C23.1239 118.198 23.9733 119.049 23.9733 120.099C23.9733 121.149 23.1239 122 22.0768 122H22.0776Z" fill="white" fill-opacity="0.2"/>
<path d="M120.103 122H99.9231C98.876 122 98.0266 121.149 98.0266 120.099C98.0266 119.049 98.876 118.198 99.9231 118.198H118.207V99.8703C118.207 98.8206 119.056 97.9692 120.103 97.9692C121.151 97.9692 122 98.8206 122 99.8703V120.099C122 121.149 121.151 122 120.103 122Z" fill="white" fill-opacity="0.2"/>
</svg>
