<svg width="20" height="21" viewBox="0 0 20 21" fill="none" xmlns="http://www.w3.org/2000/svg">
<path fill-rule="evenodd" clip-rule="evenodd" d="M8.28628 3.20825H11.7136C13.2451 3.20824 14.4581 3.20823 15.4075 3.33586C16.3845 3.46722 17.1753 3.74399 17.7989 4.36762C18.4226 4.99126 18.6993 5.78205 18.8307 6.75907C18.9061 7.31979 18.9369 7.9725 18.9496 8.72848C18.9553 8.76255 18.9583 8.79755 18.9583 8.83325C18.9583 8.86263 18.9563 8.89153 18.9523 8.91983C18.9583 9.39127 18.9583 9.90145 18.9583 10.4529V10.4999C18.9583 10.8451 18.6785 11.1249 18.3333 11.1249C17.9881 11.1249 17.7083 10.8451 17.7083 10.4999C17.7083 10.1283 17.7082 9.78191 17.7066 9.45825H2.29328C2.2917 9.78191 2.29163 10.1283 2.29163 10.4999C2.29163 12.0889 2.29295 13.2178 2.40809 14.0742C2.52081 14.9126 2.7322 15.3957 3.08488 15.7483C3.43755 16.101 3.92059 16.3124 4.759 16.4251C5.61539 16.5403 6.74428 16.5416 8.33329 16.5416H11.6666C12.0118 16.5416 12.2916 16.8214 12.2916 17.1666C12.2916 17.5118 12.0118 17.7916 11.6666 17.7916H8.28628C6.75482 17.7916 5.54179 17.7916 4.59244 17.664C3.61542 17.5326 2.82463 17.2559 2.201 16.6322C1.57736 16.0086 1.3006 15.2178 1.16924 14.2408C1.0416 13.2914 1.04161 12.0784 1.04163 10.5469V10.4529C1.04162 9.90144 1.04162 9.39126 1.04757 8.91982C1.04365 8.89152 1.04163 8.86262 1.04163 8.83325C1.04163 8.79756 1.04462 8.76256 1.05037 8.7285C1.06299 7.97251 1.09385 7.31979 1.16924 6.75907C1.3006 5.78205 1.57736 4.99126 2.201 4.36762C2.82463 3.74399 3.61542 3.46722 4.59244 3.33586C5.54179 3.20823 6.75481 3.20824 8.28628 3.20825ZM2.31335 8.20825H17.6866C17.6703 7.71931 17.6417 7.29687 17.5918 6.92563C17.4791 6.08722 17.2677 5.60418 16.915 5.25151C16.5624 4.89883 16.0793 4.68744 15.2409 4.57472C14.3845 4.45958 13.2556 4.45825 11.6666 4.45825H8.33329C6.74428 4.45825 5.61539 4.45958 4.759 4.57472C3.92059 4.68744 3.43755 4.89883 3.08488 5.2515C2.7322 5.60418 2.52081 6.08722 2.40809 6.92563C2.35818 7.29687 2.32966 7.71931 2.31335 8.20825ZM15.8333 11.5416C16.1785 11.5416 16.4583 11.8214 16.4583 12.1666V15.6577L17.058 15.058C17.3021 14.8139 17.6978 14.8139 17.9419 15.058C18.186 15.3021 18.186 15.6978 17.9419 15.9419L16.2752 17.6085C16.0312 17.8526 15.6354 17.8526 15.3914 17.6085L13.7247 15.9419C13.4806 15.6978 13.4806 15.3021 13.7247 15.058C13.9688 14.8139 14.3645 14.8139 14.6086 15.058L15.2083 15.6577V12.1666C15.2083 11.8214 15.4881 11.5416 15.8333 11.5416ZM4.37496 13.8333C4.37496 13.4881 4.65478 13.2083 4.99996 13.2083H8.33329C8.67847 13.2083 8.95829 13.4881 8.95829 13.8333C8.95829 14.1784 8.67847 14.4583 8.33329 14.4583H4.99996C4.65478 14.4583 4.37496 14.1784 4.37496 13.8333ZM9.79163 13.8333C9.79163 13.4881 10.0714 13.2083 10.4166 13.2083H10.8333C11.1785 13.2083 11.4583 13.4881 11.4583 13.8333C11.4583 14.1784 11.1785 14.4583 10.8333 14.4583H10.4166C10.0714 14.4583 9.79163 14.1784 9.79163 13.8333Z" fill="#34C759"/>
</svg>
