<svg width="20" height="21" viewBox="0 0 20 21" fill="none" xmlns="http://www.w3.org/2000/svg">
<path fill-rule="evenodd" clip-rule="evenodd" d="M8.28628 3.20837H11.7136C13.2451 3.20836 14.4581 3.20835 15.4075 3.33599C16.3845 3.46734 17.1753 3.74411 17.7989 4.36774C18.4226 4.99138 18.6993 5.78217 18.8307 6.75919C18.9061 7.31991 18.9369 7.97262 18.9496 8.7286C18.9553 8.76267 18.9583 8.79767 18.9583 8.83337C18.9583 8.86275 18.9563 8.89166 18.9523 8.91995C18.9583 9.39139 18.9583 9.90157 18.9583 10.453V10.5C18.9583 10.8452 18.6785 11.125 18.3333 11.125C17.9881 11.125 17.7083 10.8452 17.7083 10.5C17.7083 10.1285 17.7082 9.78203 17.7066 9.45837H2.29328C2.2917 9.78203 2.29163 10.1285 2.29163 10.5C2.29163 12.0891 2.29295 13.2179 2.40809 14.0743C2.52081 14.9127 2.7322 15.3958 3.08488 15.7485C3.43755 16.1011 3.92059 16.3125 4.759 16.4252C5.61539 16.5404 6.74428 16.5417 8.33329 16.5417H11.6666C12.0118 16.5417 12.2916 16.8215 12.2916 17.1667C12.2916 17.5119 12.0118 17.7917 11.6666 17.7917H8.28628C6.75482 17.7917 5.54179 17.7917 4.59244 17.6641C3.61542 17.5327 2.82463 17.256 2.201 16.6323C1.57736 16.0087 1.3006 15.2179 1.16924 14.2409C1.0416 13.2915 1.04161 12.0785 1.04163 10.5471V10.453C1.04162 9.90156 1.04162 9.39138 1.04757 8.91994C1.04365 8.89165 1.04163 8.86275 1.04163 8.83337C1.04163 8.79768 1.04462 8.76268 1.05037 8.72862C1.06299 7.97263 1.09385 7.31992 1.16924 6.75919C1.3006 5.78217 1.57736 4.99138 2.201 4.36774C2.82463 3.74411 3.61542 3.46734 4.59244 3.33599C5.54179 3.20835 6.75481 3.20836 8.28628 3.20837ZM2.31335 8.20837H17.6866C17.6703 7.71943 17.6417 7.29699 17.5918 6.92575C17.4791 6.08734 17.2677 5.6043 16.915 5.25163C16.5624 4.89895 16.0793 4.68756 15.2409 4.57484C14.3845 4.4597 13.2556 4.45837 11.6666 4.45837H8.33329C6.74428 4.45837 5.61539 4.4597 4.759 4.57484C3.92059 4.68756 3.43755 4.89895 3.08488 5.25163C2.7322 5.6043 2.52081 6.08734 2.40809 6.92575C2.35818 7.29699 2.32966 7.71943 2.31335 8.20837ZM15.3914 11.7248C15.6354 11.4807 16.0312 11.4807 16.2752 11.7248L17.9419 13.3914C18.186 13.6355 18.186 14.0312 17.9419 14.2753C17.6978 14.5194 17.3021 14.5194 17.058 14.2753L16.4583 13.6756V17.1667C16.4583 17.5119 16.1785 17.7917 15.8333 17.7917C15.4881 17.7917 15.2083 17.5119 15.2083 17.1667V13.6756L14.6086 14.2753C14.3645 14.5194 13.9688 14.5194 13.7247 14.2753C13.4806 14.0312 13.4806 13.6355 13.7247 13.3914L15.3914 11.7248ZM4.37496 13.8334C4.37496 13.4882 4.65478 13.2084 4.99996 13.2084H8.33329C8.67847 13.2084 8.95829 13.4882 8.95829 13.8334C8.95829 14.1786 8.67847 14.4584 8.33329 14.4584H4.99996C4.65478 14.4584 4.37496 14.1786 4.37496 13.8334ZM9.79163 13.8334C9.79163 13.4882 10.0714 13.2084 10.4166 13.2084H10.8333C11.1785 13.2084 11.4583 13.4882 11.4583 13.8334C11.4583 14.1786 11.1785 14.4584 10.8333 14.4584H10.4166C10.0714 14.4584 9.79163 14.1786 9.79163 13.8334Z" fill="#FF3B30"/>
</svg>
