<svg width="30" height="31" viewBox="0 0 30 31" fill="none" xmlns="http://www.w3.org/2000/svg">
<g filter="url(#filter0_n_2713_2291)">
<rect y="0.0181885" width="30" height="30" rx="15" fill="#ECECEC" fill-opacity="0.6"/>
<g clip-path="url(#clip0_2713_2291)">
<circle cx="15" cy="15.0182" r="2" stroke="#8E8E93" stroke-width="1.5"/>
<path d="M16.1769 8.45306C15.9319 8.35156 15.6213 8.35156 15 8.35156C14.3787 8.35156 14.0681 8.35156 13.8231 8.45306C13.4964 8.58838 13.2368 8.84795 13.1015 9.17465C13.0397 9.32379 13.0155 9.49723 13.0061 9.75022C12.9922 10.122 12.8015 10.4662 12.4793 10.6522C12.1571 10.8382 11.7637 10.8313 11.4348 10.6574C11.211 10.5391 11.0487 10.4733 10.8886 10.4522C10.538 10.4061 10.1835 10.5011 9.90292 10.7164C9.69251 10.8778 9.53719 11.1468 9.22656 11.6849C8.91594 12.2229 8.76062 12.4919 8.726 12.7548C8.67985 13.1054 8.77486 13.46 8.99013 13.7405C9.08838 13.8686 9.22648 13.9762 9.4408 14.1109C9.75587 14.3089 9.9586 14.6461 9.95858 15.0182C9.95856 15.3903 9.75584 15.7275 9.4408 15.9255C9.22644 16.0601 9.08833 16.1678 8.99006 16.2959C8.77479 16.5764 8.67978 16.931 8.72594 17.2816C8.76056 17.5445 8.91587 17.8135 9.2265 18.3516C9.53713 18.8896 9.69244 19.1586 9.90285 19.3201C10.1834 19.5353 10.538 19.6303 10.8886 19.5842C11.0486 19.5631 11.2109 19.4973 11.4347 19.379C11.7637 19.2052 12.157 19.1982 12.4793 19.3843C12.8015 19.5703 12.9922 19.9145 13.0061 20.2863C13.0155 20.5392 13.0397 20.7127 13.1015 20.8618C13.2368 21.1885 13.4964 21.4481 13.8231 21.5834C14.0681 21.6849 14.3787 21.6849 15 21.6849C15.6213 21.6849 15.9319 21.6849 16.1769 21.5834C16.5036 21.4481 16.7632 21.1885 16.8985 20.8618C16.9603 20.7127 16.9845 20.5392 16.9939 20.2862C17.0078 19.9144 17.1985 19.5703 17.5207 19.3843C17.8429 19.1982 18.2363 19.2051 18.5653 19.379C18.7891 19.4973 18.9513 19.5631 19.1114 19.5841C19.462 19.6303 19.8165 19.5353 20.0971 19.32C20.3075 19.1586 20.4628 18.8895 20.7734 18.3515C21.0841 17.8135 21.2394 17.5445 21.274 17.2815C21.3202 16.9309 21.2251 16.5764 21.0099 16.2958C20.9116 16.1678 20.7735 16.0601 20.5592 15.9254C20.2441 15.7275 20.0414 15.3903 20.0414 15.0182C20.0414 14.6461 20.2441 14.309 20.5592 14.111C20.7735 13.9763 20.9117 13.8687 21.0099 13.7406C21.2252 13.46 21.3202 13.1055 21.2741 12.7549C21.2394 12.4919 21.0841 12.2229 20.7735 11.6849C20.4629 11.1469 20.3076 10.8779 20.0972 10.7164C19.8166 10.5011 19.462 10.4061 19.1114 10.4523C18.9514 10.4734 18.7891 10.5391 18.5653 10.6574C18.2363 10.8313 17.843 10.8382 17.5207 10.6522C17.1985 10.4662 17.0078 10.122 16.9939 9.75019C16.9845 9.49721 16.9603 9.32378 16.8985 9.17465C16.7632 8.84795 16.5036 8.58838 16.1769 8.45306Z" stroke="#8E8E93" stroke-width="1.5"/>
</g>
</g>
<defs>
<filter id="filter0_n_2713_2291" x="0" y="0.0181885" width="30" height="30" filterUnits="userSpaceOnUse" color-interpolation-filters="sRGB">
<feFlood flood-opacity="0" result="BackgroundImageFix"/>
<feBlend mode="normal" in="SourceGraphic" in2="BackgroundImageFix" result="shape"/>
<feTurbulence type="fractalNoise" baseFrequency="2.5 2.5" stitchTiles="stitch" numOctaves="3" result="noise" seed="7061" />
<feColorMatrix in="noise" type="luminanceToAlpha" result="alphaNoise" />
<feComponentTransfer in="alphaNoise" result="coloredNoise1">
<feFuncA type="discrete" tableValues="1 1 1 1 1 1 1 1 1 1 1 1 1 1 1 1 1 1 1 1 1 1 1 1 1 1 1 1 1 1 1 1 1 1 1 1 1 1 1 1 1 1 1 1 1 1 1 1 1 1 1 0 0 0 0 0 0 0 0 0 0 0 0 0 0 0 0 0 0 0 0 0 0 0 0 0 0 0 0 0 0 0 0 0 0 0 0 0 0 0 0 0 0 0 0 0 0 0 0 0 "/>
</feComponentTransfer>
<feComposite operator="in" in2="shape" in="coloredNoise1" result="noise1Clipped" />
<feFlood flood-color="rgba(0, 0, 0, 0.04)" result="color1Flood" />
<feComposite operator="in" in2="noise1Clipped" in="color1Flood" result="color1" />
<feMerge result="effect1_noise_2713_2291">
<feMergeNode in="shape" />
<feMergeNode in="color1" />
</feMerge>
</filter>
<clipPath id="clip0_2713_2291">
<rect x="7" y="7.01819" width="16" height="16" rx="5" fill="white"/>
</clipPath>
</defs>
</svg>
