<svg width="105" height="105" viewBox="0 0 105 105" fill="none" xmlns="http://www.w3.org/2000/svg">
<rect width="105" height="105" rx="52.5" fill="#E4F9E9"/>
<path fill-rule="evenodd" clip-rule="evenodd" d="M90.4166 52.4999C90.4166 73.4407 73.4408 90.4166 52.5 90.4166C31.5592 90.4166 14.5833 73.4407 14.5833 52.4999C14.5833 31.5591 31.5592 14.5833 52.5 14.5833C73.4408 14.5833 90.4166 31.5591 90.4166 52.4999ZM67.7816 41.0099C68.8922 42.1205 68.8922 43.921 67.7816 45.0316L48.8233 63.9899C47.7128 65.1005 45.9122 65.1005 44.8016 63.9899L37.2183 56.4066C36.1078 55.296 36.1078 53.4955 37.2183 52.3849C38.3289 51.2744 40.1294 51.2744 41.24 52.3849L46.8125 57.9574L55.2862 49.4837L63.76 41.0099C64.8705 39.8994 66.6711 39.8994 67.7816 41.0099Z" fill="#34C759"/>
</svg>
