<svg width="16" height="17" viewBox="0 0 16 17" fill="none" xmlns="http://www.w3.org/2000/svg">
<g clip-path="url(#clip0_1_853)">
<path d="M11.75 14.0182C12.1777 13.638 12.8223 13.638 13.25 14.0182C13.5406 14.2765 14 14.0702 14 13.6814V2.35486C14 1.96604 13.5406 1.75974 13.25 2.01806C12.8223 2.39826 12.1777 2.39826 11.75 2.01806C11.3223 1.63786 10.6777 1.63786 10.25 2.01806C9.82228 2.39826 9.17772 2.39826 8.75 2.01806C8.32228 1.63786 7.67772 1.63786 7.25 2.01806C6.82228 2.39826 6.17772 2.39826 5.75 2.01806C5.32228 1.63786 4.67772 1.63786 4.25 2.01806C3.82228 2.39826 3.17772 2.39826 2.75 2.01806C2.45939 1.75974 2 1.96604 2 2.35486V13.6814C2 14.0702 2.45939 14.2765 2.75 14.0182C3.17772 13.638 3.82228 13.638 4.25 14.0182C4.67772 14.3984 5.32228 14.3984 5.75 14.0182C6.17772 13.638 6.82228 13.638 7.25 14.0182C7.67772 14.3984 8.32228 14.3984 8.75 14.0182C9.17772 13.638 9.82228 13.638 10.25 14.0182C10.6777 14.3984 11.3223 14.3984 11.75 14.0182Z" stroke="#FF9500" stroke-width="1.5"/>
<path d="M5 10.3515H11" stroke="#FF9500" stroke-linecap="round"/>
<path d="M5 8.01819H11" stroke="#FF9500" stroke-linecap="round"/>
<path d="M5 5.68488H11" stroke="#FF9500" stroke-linecap="round"/>
</g>
<defs>
<clipPath id="clip0_1_853">
<rect width="16" height="16" fill="white" transform="translate(0 0.0181885)"/>
</clipPath>
</defs>
</svg>
