<svg width="21" height="24" viewBox="0 0 21 24" fill="none" xmlns="http://www.w3.org/2000/svg">
<g clip-path="url(#clip0_2669_2223)">
<path d="M15.563 8.67129C17.0951 9.766 18.9722 10.4101 20.9994 10.4101V6.51116C20.6157 6.51131 20.2331 6.47128 19.8577 6.39172V9.46076C17.8306 9.46076 15.9538 8.81673 14.4213 7.72211V15.6788C14.4213 19.6592 11.1929 22.8857 7.21079 22.8857C5.72496 22.8857 4.34388 22.4367 3.19667 21.6667C4.50605 23.0049 6.33207 23.8349 8.35217 23.8349C12.3346 23.8349 15.5631 20.6085 15.5631 16.6279V8.67129H15.563ZM16.9714 4.73773C16.1884 3.88271 15.6742 2.77775 15.563 1.55614V1.05469H14.4811C14.7534 2.60729 15.6824 3.93374 16.9714 4.73773ZM5.71536 18.6123C5.27783 18.0391 5.04134 17.3376 5.04246 16.6165C5.04246 14.7961 6.5191 13.32 8.34093 13.32C8.6804 13.3198 9.01786 13.3719 9.34147 13.4745V9.48832C8.9633 9.43656 8.58169 9.41449 8.20025 9.42261V12.5252C7.87648 12.4226 7.53885 12.3706 7.19922 12.3708C5.37747 12.3708 3.90091 13.8467 3.90091 15.6674C3.90091 16.9548 4.63894 18.0694 5.71536 18.6123Z" fill="#FF004F"/>
<path d="M14.4213 7.72202C15.9539 8.81665 17.8306 9.46068 19.8577 9.46068V6.39164C18.7262 6.15071 17.7245 5.55976 16.9714 4.73773C15.6822 3.93366 14.7534 2.60721 14.4811 1.05469H11.6393V16.6277C11.6328 18.4433 10.1587 19.9133 8.34078 19.9133C7.26961 19.9133 6.31789 19.4029 5.7152 18.6122C4.63895 18.0694 3.90084 16.9547 3.90084 15.6675C3.90084 13.847 5.3774 12.3709 7.19915 12.3709C7.54819 12.3709 7.8846 12.4252 8.20017 12.5253V9.4227C4.28794 9.5035 1.14163 12.6984 1.14163 16.6278C1.14163 18.5894 1.92511 20.3675 3.19676 21.6668C4.34397 22.4367 5.72496 22.8858 7.21088 22.8858C11.1931 22.8858 14.4214 19.6591 14.4214 15.6788L14.4213 7.72202Z" fill="black"/>
<path d="M19.8577 6.39152V5.56186C18.8373 5.56334 17.8371 5.27774 16.9714 4.73769C17.7377 5.57622 18.7468 6.15448 19.8577 6.39169M14.481 1.05457C14.455 0.906223 14.4351 0.756886 14.4213 0.606926V0.105469H10.4974V15.6787C10.4911 17.494 9.01704 18.964 7.19906 18.964C6.68368 18.9648 6.17534 18.8443 5.71512 18.6124C6.3178 19.4029 7.26953 19.9131 8.34069 19.9131C10.1585 19.9131 11.6328 18.4433 11.6392 16.6278V1.05465L14.481 1.05457ZM8.20034 9.42258V8.53918C7.87245 8.49442 7.54189 8.472 7.21096 8.47208C3.22834 8.47208 0 11.6987 0 15.6787C0 18.174 1.26878 20.3731 3.19684 21.6666C1.92519 20.3674 1.14171 18.5892 1.14171 16.6277C1.14171 12.6984 4.28794 9.50338 8.20034 9.42258Z" fill="#00F2EA"/>
</g>
<defs>
<clipPath id="clip0_2669_2223">
<rect width="21" height="23.7891" fill="white" transform="translate(0 0.105469)"/>
</clipPath>
</defs>
</svg>
