<svg width="24" height="24" viewBox="0 0 24 24" fill="none" xmlns="http://www.w3.org/2000/svg">
<path fill-rule="evenodd" clip-rule="evenodd" d="M5.07881 5.06904C8.87414 1.27905 15.0438 1.31935 18.8623 5.1379C22.6825 8.95809 22.7212 15.1314 18.9263 18.9263C15.1314 22.7212 8.95805 22.6826 5.13786 18.8624C2.87401 16.5985 1.93916 13.51 2.34059 10.5813C2.39684 10.171 2.77512 9.8839 3.18549 9.94015C3.59587 9.9964 3.88295 10.3747 3.8267 10.785C3.48672 13.2654 4.27794 15.8811 6.19852 17.8017C9.443 21.0462 14.6665 21.0648 17.8656 17.8657C21.0647 14.6665 21.0461 9.44304 17.8017 6.19856C14.5588 2.95574 9.33901 2.93551 6.13947 6.12969L6.88717 6.13345C7.30138 6.13553 7.63547 6.473 7.63339 6.88721C7.63131 7.30142 7.29384 7.63551 6.87963 7.63343L4.33408 7.62064C3.92281 7.61857 3.58993 7.28569 3.58786 6.87442L3.57507 4.32887C3.57299 3.91466 3.90708 3.57719 4.32129 3.57511C4.7355 3.57302 5.07297 3.90712 5.07505 4.32133L5.07881 5.06904ZM12 7.25004C12.4142 7.25004 12.75 7.58583 12.75 8.00004V11.6894L15.0303 13.9697C15.3232 14.2626 15.3232 14.7375 15.0303 15.0304C14.7374 15.3233 14.2626 15.3233 13.9697 15.0304L11.25 12.3107V8.00004C11.25 7.58583 11.5858 7.25004 12 7.25004Z" fill="#AEAEB2"/>
</svg>
