<svg width="20" height="21" viewBox="0 0 20 21" fill="none" xmlns="http://www.w3.org/2000/svg">
<rect y="0.5" width="20" height="20" rx="10" fill="#E0F5FF"/>
<path d="M15.0522 7.71169L10.4754 14.9999C10.4196 15.0884 10.3423 15.1613 10.2506 15.2117C10.1588 15.2621 10.0558 15.2884 9.9512 15.288C9.84656 15.2877 9.74372 15.2607 9.65236 15.2097C9.561 15.1587 9.48411 15.0853 9.42892 14.9964L4.94133 7.70819C4.81538 7.50417 4.7491 7.26895 4.75 7.02919C4.75537 6.67499 4.90121 6.33744 5.15544 6.09075C5.40967 5.84407 5.75147 5.70847 6.10567 5.71377H13.9002C14.6451 5.71319 15.25 6.30002 15.25 7.02569C15.25 7.26661 15.1823 7.50461 15.0522 7.71169ZM6.04383 7.46669L9.38225 12.6152V6.94869H6.39267C6.04733 6.94869 5.89275 7.17736 6.04383 7.46786M10.6172 12.6164L13.9568 7.46669C14.1113 7.17677 13.9532 6.94752 13.6073 6.94752H10.6183L10.6172 12.6164Z" fill="#0088CC"/>
</svg>
