<svg width="14" height="14" viewBox="0 0 14 14" fill="none" xmlns="http://www.w3.org/2000/svg">
<path fill-rule="evenodd" clip-rule="evenodd" d="M9.1396 4.08334C9.1396 3.84172 9.33548 3.64584 9.5771 3.64584H12.8334C13.075 3.64584 13.2709 3.84172 13.2709 4.08334V7.31841C13.2709 7.56004 13.075 7.75591 12.8334 7.75591C12.5917 7.75591 12.3959 7.56004 12.3959 7.31841V5.13501L8.81662 8.69243C8.54306 8.96435 8.30727 9.19873 8.09314 9.36118C7.8636 9.53531 7.60856 9.66703 7.29461 9.667C6.98066 9.66696 6.72566 9.53518 6.49616 9.36099C6.28207 9.1985 6.04634 8.96408 5.77285 8.6921L5.61287 8.53301C5.31295 8.23478 5.11849 8.04273 4.95658 7.91985C4.80478 7.80464 4.73381 7.79179 4.68681 7.79181C4.63981 7.79183 4.56885 7.80473 4.41713 7.92005C4.25531 8.04304 4.06099 8.23524 3.76129 8.53369L1.4754 10.81C1.30418 10.9805 1.02718 10.9799 0.85668 10.8087C0.686184 10.6375 0.686765 10.3605 0.857977 10.19L3.16422 7.89341C3.43776 7.62099 3.67352 7.38619 3.88766 7.22342C4.1172 7.04896 4.37231 6.91692 4.68649 6.91681C5.00067 6.91669 5.25587 7.04854 5.48554 7.22284C5.6998 7.38544 5.93573 7.62007 6.20947 7.89229L6.36946 8.05138C6.66912 8.34936 6.86339 8.54123 7.02516 8.66401C7.17682 8.77912 7.24774 8.79199 7.29471 8.792C7.34169 8.792 7.41262 8.77914 7.5643 8.66407C7.72609 8.54133 7.92041 8.3495 8.22014 8.0516L11.7726 4.52084H9.5771C9.33548 4.52084 9.1396 4.32497 9.1396 4.08334Z" fill="#34C759"/>
</svg>
