<svg width="21" height="20" viewBox="0 0 21 20" fill="none" xmlns="http://www.w3.org/2000/svg">
<path d="M4.63266 3.91367C4.92334 3.61858 4.91976 3.14372 4.62467 2.85304C4.32958 2.56236 3.85472 2.56594 3.56404 2.86103L4.63266 3.91367ZM7.5 2.31429L6.96568 1.78798C6.6781 2.07994 6.67811 2.54866 6.96569 2.84061L7.5 2.31429ZM8.42437 4.32141C8.71505 4.6165 9.18991 4.62008 9.485 4.3294C9.78009 4.03872 9.78366 3.56386 9.49298 3.26877L8.42437 4.32141ZM9.493 1.35969C9.78367 1.06459 9.78008 0.589729 9.48498 0.299059C9.18988 0.0083884 8.71502 0.0119792 8.42435 0.307079L9.493 1.35969ZM10.5 17.4999V16.7499C8.71072 16.7499 7.44533 16.7483 6.48666 16.6174C5.55072 16.4897 5.01973 16.2515 4.63266 15.8586L4.09835 16.3849L3.56404 16.9112C4.27532 17.6333 5.17738 17.9526 6.28381 18.1037C7.36748 18.2516 8.75375 18.2499 10.5 18.2499V17.4999ZM3 9.88613H2.25C2.25 11.6598 2.24845 13.0644 2.39379 14.1618C2.54182 15.2796 2.85431 16.1907 3.56404 16.9112L4.09835 16.3849L4.63266 15.8586C4.24404 15.4641 4.00735 14.9204 3.8808 13.9649C3.75155 12.9889 3.75 11.7016 3.75 9.88613H3ZM18 9.88613H17.25C17.25 11.7016 17.2485 12.9889 17.1192 13.9649C16.9926 14.9204 16.756 15.4641 16.3673 15.8586L16.9017 16.3849L17.436 16.9112C18.1457 16.1907 18.4582 15.2796 18.6062 14.1618C18.7515 13.0644 18.75 11.6598 18.75 9.88613H18ZM10.5 17.4999V18.2499C12.2463 18.2499 13.6325 18.2516 14.7162 18.1037C15.8226 17.9526 16.7247 17.6333 17.436 16.9112L16.9017 16.3849L16.3673 15.8586C15.9803 16.2515 15.4493 16.4897 14.5133 16.6174C13.5547 16.7483 12.2893 16.7499 10.5 16.7499V17.4999ZM10.5 2.27233V3.02233C12.2893 3.02233 13.5547 3.02397 14.5133 3.15482C15.4493 3.28256 15.9803 3.52073 16.3673 3.91367L16.9017 3.38735L17.436 2.86103C16.7247 2.13895 15.8226 1.81961 14.7162 1.6686C13.6325 1.52069 12.2463 1.52233 10.5 1.52233V2.27233ZM18 9.88613H18.75C18.75 8.11244 18.7515 6.70783 18.6062 5.61046C18.4582 4.49266 18.1457 3.58153 17.436 2.86103L16.9017 3.38735L16.3673 3.91367C16.756 4.30818 16.9926 4.85185 17.1192 5.8074C17.2485 6.78337 17.25 8.07065 17.25 9.88613H18ZM3 9.88613H3.75C3.75 8.07065 3.75155 6.78337 3.8808 5.8074C4.00735 4.85185 4.24404 4.30818 4.63266 3.91367L4.09835 3.38735L3.56404 2.86103C2.85431 3.58153 2.54182 4.49266 2.39379 5.61046C2.24845 6.70783 2.25 8.11244 2.25 9.88613H3ZM10.5 2.27233V1.52233C9.32171 1.52233 8.31422 1.52212 7.4621 1.56524L7.5 2.31429L7.5379 3.06333C8.3439 3.02254 9.30886 3.02233 10.5 3.02233V2.27233ZM7.5 2.31429L6.96569 2.84061L8.42437 4.32141L8.95867 3.79509L9.49298 3.26877L8.03431 1.78796L7.5 2.31429ZM7.5 2.31429L8.03433 2.84059L9.493 1.35969L8.95867 0.833384L8.42435 0.307079L6.96568 1.78798L7.5 2.31429Z" fill="#FF9500"/>
<path d="M7.58325 10.4167L9.24992 12.0834L13.4166 7.91675" stroke="#FF9500" stroke-width="1.5" stroke-linecap="round" stroke-linejoin="round"/>
</svg>
