<svg width="20" height="21" viewBox="0 0 20 21" fill="none" xmlns="http://www.w3.org/2000/svg">
<rect y="0.5" width="20" height="20" rx="10" fill="#E0FFFF"/>
<path d="M10 14.7L4.75 9.52005L6.75258 6.30005H13.2474L15.25 9.52005L10 14.7ZM10.525 9.97505V9.33455C11.47 9.38122 12.352 9.56555 12.625 9.80413C12.3077 10.0824 11.1707 10.2848 10 10.2848C8.82925 10.2848 7.69233 10.0824 7.375 9.80413C7.64508 9.56497 8.53 9.38413 9.475 9.33163V9.97505H10.525ZM7.375 9.8018V10.1874C7.64508 10.4265 8.52708 10.6074 9.475 10.6599V12.075H10.525V10.6575C11.47 10.6103 12.3543 10.4265 12.625 10.1874V9.41855C12.3543 9.17938 11.47 8.99563 10.525 8.94605V8.40005H12.1V7.61255H7.9V8.40005H9.475V8.94605C8.52708 8.99563 7.64508 9.17938 7.375 9.41855V9.8018Z" fill="#009393"/>
</svg>
