<svg width="30" height="30" viewBox="0 0 30 30" fill="none" xmlns="http://www.w3.org/2000/svg">
<g filter="url(#filter0_n_2669_2144)">
<rect width="30" height="30" rx="15" fill="#EEF7F1"/>
<path fill-rule="evenodd" clip-rule="evenodd" d="M12.9937 7.66685C12.7907 7.8398 12.6892 7.92627 12.5809 7.99891C12.3325 8.16541 12.0535 8.28097 11.7601 8.3389C11.6321 8.36416 11.4992 8.37477 11.2334 8.39598C10.5656 8.44927 10.2317 8.47592 9.95308 8.57432C9.30875 8.8019 8.80193 9.30872 8.57435 9.95305C8.47595 10.2316 8.4493 10.5655 8.39601 11.2334C8.3748 11.4992 8.36419 11.6321 8.33893 11.76C8.281 12.0534 8.16544 12.3324 7.99894 12.5808C7.9263 12.6892 7.83983 12.7907 7.66688 12.9936C7.23235 13.5035 7.01508 13.7585 6.88767 14.025C6.59299 14.6416 6.59299 15.3583 6.88767 15.9749C7.01508 16.2414 7.23235 16.4964 7.66688 17.0063C7.83981 17.2092 7.92631 17.3107 7.99894 17.4191C8.16544 17.6675 8.281 17.9465 8.33893 18.2399C8.36419 18.3679 8.3748 18.5008 8.39601 18.7666C8.4493 19.4344 8.47595 19.7683 8.57435 20.0469C8.80193 20.6912 9.30875 21.198 9.95308 21.4256C10.2317 21.524 10.5656 21.5506 11.2334 21.6039C11.4992 21.6252 11.6321 21.6358 11.7601 21.661C12.0535 21.7189 12.3325 21.8345 12.5809 22.001C12.6892 22.0736 12.7907 22.1601 12.9937 22.3331C13.5036 22.7676 13.7585 22.9849 14.0251 23.1123C14.6416 23.407 15.3584 23.407 15.9749 23.1123C16.2415 22.9849 16.4964 22.7676 17.0063 22.3331C17.2093 22.1601 17.3107 22.0736 17.4191 22.001C17.6675 21.8345 17.9465 21.7189 18.2399 21.661C18.3679 21.6358 18.5008 21.6252 18.7666 21.6039C19.4344 21.5506 19.7683 21.524 20.0469 21.4256C20.6912 21.198 21.198 20.6912 21.4256 20.0469C21.524 19.7683 21.5507 19.4344 21.604 18.7666C21.6252 18.5008 21.6358 18.3679 21.6611 18.2399C21.719 17.9465 21.8345 17.6675 22.001 17.4191C22.0737 17.3107 22.1602 17.2092 22.3331 17.0063C22.7676 16.4964 22.9849 16.2414 23.1123 15.9749C23.407 15.3583 23.407 14.6416 23.1123 14.025C22.9849 13.7585 22.7676 13.5035 22.3331 12.9936C22.1602 12.7907 22.0737 12.6892 22.001 12.5808C21.8345 12.3324 21.719 12.0534 21.6611 11.76C21.6358 11.6321 21.6252 11.4992 21.604 11.2334C21.5507 10.5655 21.524 10.2316 21.4256 9.95305C21.198 9.30872 20.6912 8.8019 20.0469 8.57432C19.7683 8.47592 19.4344 8.44927 18.7666 8.39598C18.5008 8.37477 18.3679 8.36416 18.2399 8.3389C17.9465 8.28097 17.6675 8.16541 17.4191 7.99891C17.3107 7.92627 17.2093 7.8398 17.0063 7.66685C16.4964 7.23232 16.2415 7.01505 15.9749 6.88764C15.3584 6.59295 14.6416 6.59295 14.0251 6.88764C13.7585 7.01505 13.5036 7.23232 12.9937 7.66685ZM18.6446 13.2192C18.9094 12.9544 18.9094 12.525 18.6446 12.2601C18.3797 11.9952 17.9503 11.9952 17.6854 12.2601L13.6435 16.302L12.3145 14.973C12.0497 14.7081 11.6203 14.7081 11.3554 14.973C11.0905 15.2378 11.0905 15.6672 11.3554 15.9321L13.164 17.7407C13.4288 18.0055 13.8583 18.0055 14.1231 17.7407L18.6446 13.2192Z" fill="#34C759"/>
</g>
<defs>
<filter id="filter0_n_2669_2144" x="0" y="0" width="30" height="30" filterUnits="userSpaceOnUse" color-interpolation-filters="sRGB">
<feFlood flood-opacity="0" result="BackgroundImageFix"/>
<feBlend mode="normal" in="SourceGraphic" in2="BackgroundImageFix" result="shape"/>
<feTurbulence type="fractalNoise" baseFrequency="2.5 2.5" stitchTiles="stitch" numOctaves="3" result="noise" seed="7061" />
<feColorMatrix in="noise" type="luminanceToAlpha" result="alphaNoise" />
<feComponentTransfer in="alphaNoise" result="coloredNoise1">
<feFuncA type="discrete" tableValues="1 1 1 1 1 1 1 1 1 1 1 1 1 1 1 1 1 1 1 1 1 1 1 1 1 1 1 1 1 1 1 1 1 1 1 1 1 1 1 1 1 1 1 1 1 1 1 1 1 1 1 0 0 0 0 0 0 0 0 0 0 0 0 0 0 0 0 0 0 0 0 0 0 0 0 0 0 0 0 0 0 0 0 0 0 0 0 0 0 0 0 0 0 0 0 0 0 0 0 0 "/>
</feComponentTransfer>
<feComposite operator="in" in2="shape" in="coloredNoise1" result="noise1Clipped" />
<feFlood flood-color="rgba(0, 0, 0, 0.04)" result="color1Flood" />
<feComposite operator="in" in2="noise1Clipped" in="color1Flood" result="color1" />
<feMerge result="effect1_noise_2669_2144">
<feMergeNode in="shape" />
<feMergeNode in="color1" />
</feMerge>
</filter>
</defs>
</svg>
