<svg width="14" height="14" viewBox="0 0 14 14" fill="none" xmlns="http://www.w3.org/2000/svg">
<g clip-path="url(#clip0_2713_2401)">
<path d="M2.02094 11.9791C2.87521 12.8334 4.25014 12.8334 7 12.8334C9.74986 12.8334 11.1248 12.8334 11.9791 11.9791C12.8333 11.1249 12.8333 9.74994 12.8333 7.00008C12.8333 4.25022 12.8333 2.87529 11.9791 2.02102M2.02094 11.9791C1.16667 11.1249 1.16667 9.74994 1.16667 7.00008C1.16667 4.25022 1.16667 2.87529 2.02094 2.02102C2.87521 1.16675 4.25014 1.16675 7 1.16675C9.74986 1.16675 11.1248 1.16675 11.9791 2.02102M2.02094 11.9791L11.9791 2.02102" stroke="#8E8E93"/>
<path d="M10.5 9.91675H7.58333" stroke="#8E8E93" stroke-linecap="round"/>
<path d="M6.125 4.6666H4.66667M4.66667 4.6666L3.20833 4.6666M4.66667 4.6666L4.66667 3.20825M4.66667 4.6666L4.66667 6.12492" stroke="#8E8E93" stroke-linecap="round"/>
</g>
<defs>
<clipPath id="clip0_2713_2401">
<rect width="14" height="14" fill="white"/>
</clipPath>
</defs>
</svg>
