<svg width="21" height="20" viewBox="0 0 21 20" fill="none" xmlns="http://www.w3.org/2000/svg">
<path d="M10.5 5.83325V10.8333" stroke="#FF9500" stroke-width="1.5" stroke-linecap="round"/>
<ellipse cx="10.5001" cy="13.3333" rx="0.833333" ry="0.833333" fill="#FF9500"/>
<path d="M7.0359 3.16851C8.7265 2.16734 9.5718 1.66675 10.5 1.66675C11.4282 1.66675 12.2735 2.16734 13.9641 3.16851L14.5359 3.50713C16.2265 4.5083 17.0718 5.00889 17.5359 5.83341C18 6.65794 18 7.65911 18 9.66146V10.3387C18 12.341 18 13.3422 17.5359 14.1667C17.0718 14.9913 16.2265 15.4919 14.5359 16.493L13.9641 16.8317C12.2735 17.8328 11.4282 18.3334 10.5 18.3334C9.5718 18.3334 8.7265 17.8328 7.0359 16.8317L6.4641 16.493C4.7735 15.4919 3.9282 14.9913 3.4641 14.1667C3 13.3422 3 12.341 3 10.3387V9.66146C3 7.65911 3 6.65794 3.4641 5.83341C3.9282 5.00889 4.7735 4.5083 6.4641 3.50713L7.0359 3.16851Z" stroke="#FF9500" stroke-width="1.5"/>
</svg>
