<svg width="20" height="16" viewBox="0 0 20 16" fill="none" xmlns="http://www.w3.org/2000/svg">
<g clip-path="url(#clip0_2669_2205)">
<path d="M19.5583 3.16211C19.4436 2.73817 19.2198 2.35168 18.9093 2.04112C18.5987 1.73056 18.2122 1.50677 17.7883 1.39203C16.2363 0.96875 9.98986 0.96875 9.98986 0.96875C9.98986 0.96875 3.74314 0.981562 2.19111 1.40484C1.76716 1.51959 1.38067 1.74339 1.07013 2.05396C0.759581 2.36454 0.535813 2.75104 0.421109 3.175C-0.0483444 5.93266 -0.230454 10.1347 0.433999 12.782C0.548716 13.206 0.772489 13.5925 1.08303 13.903C1.39358 14.2136 1.78006 14.4374 2.204 14.5521C3.75603 14.9754 10.0026 14.9754 10.0026 14.9754C10.0026 14.9754 16.2491 14.9754 17.801 14.5521C18.225 14.4374 18.6115 14.2136 18.922 13.903C19.2326 13.5925 19.4564 13.206 19.5711 12.782C20.0663 10.0205 20.2188 5.82102 19.5583 3.16211Z" fill="#FF0000"/>
<path d="M8.00165 10.9735L13.1835 7.97211L8.00165 4.9707V10.9735Z" fill="white"/>
</g>
<defs>
<clipPath id="clip0_2669_2205">
<rect width="20" height="14.0625" fill="white" transform="translate(0 0.96875)"/>
</clipPath>
</defs>
</svg>
