<svg width="20" height="20" viewBox="0 0 20 20" fill="none" xmlns="http://www.w3.org/2000/svg">
<path fill-rule="evenodd" clip-rule="evenodd" d="M8.2864 2.70825H11.7138C13.2452 2.70824 14.4583 2.70823 15.4076 2.83586C16.3846 2.96722 17.1754 3.24399 17.799 3.86762C18.4227 4.49126 18.6994 5.28205 18.8308 6.25907C18.9062 6.81979 18.937 7.4725 18.9497 8.22848C18.9554 8.26255 18.9584 8.29755 18.9584 8.33325C18.9584 8.36263 18.9564 8.39153 18.9525 8.41983C18.9584 8.89127 18.9584 9.40145 18.9584 9.95291V9.99992C18.9584 10.3451 18.6786 10.6249 18.3334 10.6249C17.9882 10.6249 17.7084 10.3451 17.7084 9.99992C17.7084 9.62834 17.7083 9.28191 17.7068 8.95825H2.2934C2.29182 9.28191 2.29175 9.62834 2.29175 9.99992C2.29175 11.5889 2.29308 12.7178 2.40821 13.5742C2.52094 14.4126 2.73233 14.8957 3.085 15.2483C3.43768 15.601 3.92071 15.8124 4.75912 15.9251C5.61551 16.0403 6.7444 16.0416 8.33341 16.0416H11.6667C12.0119 16.0416 12.2917 16.3214 12.2917 16.6666C12.2917 17.0118 12.0119 17.2916 11.6667 17.2916H8.28641C6.75494 17.2916 5.54191 17.2916 4.59256 17.164C3.61554 17.0326 2.82475 16.7559 2.20112 16.1322C1.57748 15.5086 1.30072 14.7178 1.16936 13.7408C1.04172 12.7914 1.04174 11.5784 1.04175 10.0469V9.9529C1.04174 9.40144 1.04174 8.89126 1.04769 8.41982C1.04377 8.39152 1.04175 8.36262 1.04175 8.33325C1.04175 8.29756 1.04474 8.26256 1.05049 8.2285C1.06312 7.47251 1.09397 6.81979 1.16936 6.25907C1.30072 5.28205 1.57748 4.49126 2.20112 3.86762C2.82475 3.24399 3.61554 2.96722 4.59256 2.83586C5.54191 2.70823 6.75493 2.70824 8.2864 2.70825ZM2.31348 7.70825H17.6867C17.6704 7.21931 17.6419 6.79687 17.5919 6.42563C17.4792 5.58722 17.2678 5.10418 16.9152 4.75151C16.5625 4.39883 16.0794 4.18744 15.241 4.07472C14.3847 3.95958 13.2558 3.95825 11.6667 3.95825H8.33342C6.7444 3.95825 5.61551 3.95958 4.75912 4.07472C3.92071 4.18744 3.43768 4.39883 3.085 4.7515C2.73233 5.10418 2.52094 5.58722 2.40821 6.42563C2.3583 6.79687 2.32978 7.21931 2.31348 7.70825ZM15.8334 11.0416C16.1786 11.0416 16.4584 11.3214 16.4584 11.6666V15.1577L17.0581 14.558C17.3022 14.3139 17.6979 14.3139 17.942 14.558C18.1861 14.8021 18.1861 15.1978 17.942 15.4419L16.2754 17.1085C16.0313 17.3526 15.6356 17.3526 15.3915 17.1085L13.7248 15.4419C13.4807 15.1978 13.4807 14.8021 13.7248 14.558C13.9689 14.3139 14.3646 14.3139 14.6087 14.558L15.2084 15.1577V11.6666C15.2084 11.3214 15.4882 11.0416 15.8334 11.0416ZM4.37508 13.3333C4.37508 12.9881 4.6549 12.7083 5.00008 12.7083H8.33342C8.67859 12.7083 8.95842 12.9881 8.95842 13.3333C8.95842 13.6784 8.67859 13.9583 8.33342 13.9583H5.00008C4.6549 13.9583 4.37508 13.6784 4.37508 13.3333ZM9.79175 13.3333C9.79175 12.9881 10.0716 12.7083 10.4167 12.7083H10.8334C11.1786 12.7083 11.4584 12.9881 11.4584 13.3333C11.4584 13.6784 11.1786 13.9583 10.8334 13.9583H10.4167C10.0716 13.9583 9.79175 13.6784 9.79175 13.3333Z" fill="white"/>
</svg>
