<svg width="20" height="20" viewBox="0 0 20 20" fill="none" xmlns="http://www.w3.org/2000/svg">
<path fill-rule="evenodd" clip-rule="evenodd" d="M8.2864 2.70825H11.7138C13.2452 2.70824 14.4583 2.70823 15.4076 2.83586C16.3846 2.96722 17.1754 3.24399 17.799 3.86762C18.3641 4.43269 18.6451 5.13586 18.7904 5.99252C18.8965 6.6179 18.9353 7.35789 18.9497 8.22856C18.9554 8.2626 18.9584 8.29758 18.9584 8.33325C18.9584 8.36267 18.9564 8.39161 18.9525 8.41995C18.9554 8.65863 18.9569 8.90679 18.9576 9.16476C18.9586 9.50993 18.6796 9.79057 18.3345 9.79158C17.9893 9.79259 17.7087 9.51359 17.7076 9.16841C17.7074 9.09729 17.7072 9.02724 17.7068 8.95825H2.2934C2.29182 9.28191 2.29175 9.62834 2.29175 9.99992C2.29175 11.5889 2.29308 12.7178 2.40821 13.5742C2.52094 14.4126 2.73233 14.8957 3.085 15.2483C3.43768 15.601 3.92071 15.8124 4.75912 15.9251C5.61551 16.0403 6.7444 16.0416 8.33341 16.0416H9.58342C9.92859 16.0416 10.2084 16.3214 10.2084 16.6666C10.2084 17.0118 9.92859 17.2916 9.58342 17.2916H8.28641C6.75494 17.2916 5.54191 17.2916 4.59256 17.164C3.61554 17.0326 2.82475 16.7559 2.20112 16.1322C1.57748 15.5086 1.30072 14.7178 1.16936 13.7408C1.04172 12.7914 1.04174 11.5784 1.04175 10.0469V9.9529C1.04174 9.40144 1.04174 8.89126 1.04769 8.41982C1.04377 8.39152 1.04175 8.36262 1.04175 8.33325C1.04175 8.29756 1.04474 8.26256 1.05049 8.2285C1.06312 7.47251 1.09397 6.81979 1.16936 6.25907C1.30072 5.28205 1.57748 4.49126 2.20112 3.86762C2.82475 3.24399 3.61554 2.96722 4.59256 2.83586C5.54191 2.70823 6.75493 2.70824 8.2864 2.70825ZM2.31348 7.70825H17.6866C17.6667 7.11258 17.629 6.61975 17.558 6.20162C17.439 5.50006 17.236 5.07235 16.9152 4.75151C16.5625 4.39883 16.0794 4.18744 15.241 4.07472C14.3847 3.95958 13.2558 3.95825 11.6667 3.95825H8.33342C6.7444 3.95825 5.61551 3.95958 4.75912 4.07472C3.92071 4.18744 3.43768 4.39883 3.085 4.7515C2.73233 5.10418 2.52094 5.58722 2.40821 6.42563C2.3583 6.79687 2.32978 7.21931 2.31348 7.70825ZM12.9167 11.0416C13.2619 11.0416 13.5417 11.3214 13.5417 11.6666V15.1577L14.1415 14.558C14.3856 14.3139 14.7813 14.3139 15.0254 14.558C15.2694 14.8021 15.2694 15.1978 15.0254 15.4419L13.3587 17.1085C13.1146 17.3526 12.7189 17.3526 12.4748 17.1085L10.8081 15.4419C10.5641 15.1978 10.5641 14.8021 10.8081 14.558C11.0522 14.3139 11.4479 14.3139 11.692 14.558L12.2917 15.1577V11.6666C12.2917 11.3214 12.5716 11.0416 12.9167 11.0416ZM16.2248 11.2246C16.4689 10.9806 16.8646 10.9806 17.1087 11.2246L18.7754 12.8913C19.0194 13.1354 19.0194 13.5311 18.7754 13.7752C18.5313 14.0193 18.1356 14.0193 17.8915 13.7752L17.2917 13.1755V16.6666C17.2917 17.0118 17.0119 17.2916 16.6667 17.2916C16.3216 17.2916 16.0417 17.0118 16.0417 16.6666V13.1755L15.442 13.7752C15.1979 14.0193 14.8022 14.0193 14.5581 13.7752C14.3141 13.5311 14.3141 13.1354 14.5581 12.8913L16.2248 11.2246ZM4.37508 13.3333C4.37508 12.9881 4.6549 12.7083 5.00008 12.7083H8.33342C8.67859 12.7083 8.95842 12.9881 8.95842 13.3333C8.95842 13.6784 8.67859 13.9583 8.33342 13.9583H5.00008C4.6549 13.9583 4.37508 13.6784 4.37508 13.3333Z" fill="white"/>
</svg>
